<?xml version="1.0" encoding="utf-8" ?>
<svg baseProfile="tiny" height="1536" version="1.2" width="2048" xmlns="http://www.w3.org/2000/svg" xmlns:ev="http://www.w3.org/2001/xml-events" xmlns:xlink="http://www.w3.org/1999/xlink"><defs /><path d="M 1131,1388 L 1130,1389 L 1127,1389 L 1126,1390 L 1125,1390 L 1124,1391 L 1123,1391 L 1121,1393 L 1120,1393 L 1116,1397 L 1116,1398 L 1114,1400 L 1114,1401 L 1113,1402 L 1113,1404 L 1112,1405 L 1112,1407 L 1111,1408 L 1111,1417 L 1112,1418 L 1112,1420 L 1113,1421 L 1113,1423 L 1114,1424 L 1114,1425 L 1117,1428 L 1117,1429 L 1118,1430 L 1119,1430 L 1122,1433 L 1123,1433 L 1124,1434 L 1125,1434 L 1126,1435 L 1127,1435 L 1128,1436 L 1133,1436 L 1134,1437 L 1137,1437 L 1138,1436 L 1142,1436 L 1143,1435 L 1145,1435 L 1146,1434 L 1147,1434 L 1148,1433 L 1149,1433 L 1156,1426 L 1156,1425 L 1157,1424 L 1157,1423 L 1158,1422 L 1158,1420 L 1159,1419 L 1159,1416 L 1160,1415 L 1160,1410 L 1159,1409 L 1159,1405 L 1158,1404 L 1158,1403 L 1157,1402 L 1157,1401 L 1156,1400 L 1156,1399 L 1154,1397 L 1154,1396 L 1152,1394 L 1151,1394 L 1148,1391 L 1147,1391 L 1146,1390 L 1144,1390 L 1143,1389 L 1141,1389 L 1140,1388 Z" fill="black" stroke="none" /><path d="M 995,1369 L 994,1370 L 991,1370 L 990,1371 L 989,1371 L 986,1374 L 985,1374 L 985,1375 L 982,1378 L 982,1380 L 981,1381 L 981,1384 L 980,1385 L 980,1388 L 981,1389 L 981,1392 L 982,1393 L 982,1394 L 983,1395 L 983,1396 L 988,1401 L 989,1401 L 990,1402 L 991,1402 L 992,1403 L 996,1403 L 997,1404 L 998,1404 L 999,1403 L 1003,1403 L 1004,1402 L 1005,1402 L 1006,1401 L 1007,1401 L 1012,1396 L 1012,1395 L 1013,1394 L 1013,1393 L 1014,1392 L 1014,1390 L 1015,1389 L 1015,1384 L 1014,1383 L 1014,1381 L 1013,1380 L 1013,1379 L 1012,1378 L 1012,1377 L 1011,1376 L 1011,1375 L 1009,1373 L 1008,1373 L 1006,1371 L 1005,1371 L 1004,1370 L 1001,1370 L 1000,1369 Z" fill="black" stroke="none" /><path d="M 816,1293 L 815,1294 L 813,1294 L 812,1295 L 811,1295 L 806,1300 L 806,1301 L 805,1302 L 805,1304 L 804,1305 L 804,1399 L 805,1400 L 805,1402 L 806,1403 L 806,1404 L 808,1406 L 808,1407 L 809,1408 L 810,1408 L 811,1409 L 812,1409 L 813,1410 L 814,1410 L 815,1411 L 821,1411 L 822,1410 L 824,1410 L 826,1408 L 827,1408 L 830,1405 L 830,1404 L 831,1403 L 831,1401 L 832,1400 L 832,1304 L 831,1303 L 831,1302 L 830,1301 L 830,1300 L 829,1299 L 829,1298 L 828,1297 L 827,1297 L 825,1295 L 824,1295 L 823,1294 L 821,1294 L 820,1293 Z" fill="black" stroke="none" /><path d="M 759,1283 L 758,1284 L 756,1284 L 754,1286 L 753,1286 L 749,1290 L 749,1291 L 748,1292 L 748,1293 L 747,1294 L 747,1295 L 746,1296 L 746,1304 L 747,1305 L 747,1307 L 748,1308 L 748,1309 L 754,1315 L 755,1315 L 756,1316 L 757,1316 L 758,1317 L 768,1317 L 769,1316 L 771,1316 L 773,1314 L 774,1314 L 777,1311 L 777,1310 L 779,1308 L 779,1306 L 780,1305 L 780,1295 L 779,1294 L 779,1293 L 778,1292 L 778,1291 L 776,1289 L 776,1288 L 775,1288 L 772,1285 L 771,1285 L 770,1284 L 768,1284 L 767,1283 Z" fill="black" stroke="none" /><path d="M 667,1189 L 666,1190 L 664,1190 L 663,1191 L 662,1191 L 657,1196 L 657,1197 L 656,1198 L 656,1200 L 655,1201 L 655,1312 L 656,1313 L 656,1314 L 657,1315 L 657,1316 L 658,1317 L 658,1318 L 661,1321 L 662,1321 L 663,1322 L 664,1322 L 665,1323 L 675,1323 L 676,1322 L 677,1322 L 679,1320 L 680,1320 L 682,1318 L 682,1317 L 683,1316 L 683,1315 L 684,1314 L 684,1312 L 685,1311 L 685,1201 L 684,1200 L 684,1198 L 682,1196 L 682,1195 L 678,1191 L 677,1191 L 676,1190 L 674,1190 L 673,1189 Z" fill="black" stroke="none" /><path d="M 815,1140 L 814,1141 L 812,1141 L 811,1142 L 810,1142 L 806,1146 L 806,1148 L 805,1149 L 805,1151 L 804,1152 L 804,1246 L 805,1247 L 805,1249 L 806,1250 L 806,1251 L 811,1256 L 812,1256 L 813,1257 L 823,1257 L 824,1256 L 825,1256 L 830,1251 L 830,1250 L 831,1249 L 831,1247 L 832,1246 L 832,1151 L 831,1150 L 831,1148 L 830,1147 L 830,1146 L 826,1142 L 825,1142 L 824,1141 L 822,1141 L 821,1140 Z" fill="black" stroke="none" /><path d="M 757,1112 L 756,1113 L 754,1113 L 753,1114 L 752,1114 L 746,1120 L 746,1121 L 745,1122 L 745,1123 L 744,1124 L 744,1233 L 745,1234 L 745,1235 L 746,1236 L 746,1237 L 747,1238 L 747,1239 L 750,1242 L 751,1242 L 753,1244 L 755,1244 L 756,1245 L 766,1245 L 767,1244 L 769,1244 L 771,1242 L 772,1242 L 776,1238 L 776,1237 L 777,1236 L 777,1234 L 778,1233 L 778,1229 L 779,1228 L 779,1129 L 778,1128 L 778,1124 L 777,1123 L 777,1122 L 776,1121 L 776,1120 L 774,1118 L 774,1117 L 773,1116 L 772,1116 L 770,1114 L 769,1114 L 768,1113 L 766,1113 L 765,1112 Z" fill="black" stroke="none" /><path d="M 667,1098 L 666,1099 L 664,1099 L 663,1100 L 661,1100 L 660,1101 L 659,1101 L 658,1102 L 657,1102 L 654,1105 L 653,1105 L 650,1108 L 650,1109 L 647,1112 L 647,1113 L 646,1114 L 646,1115 L 645,1116 L 645,1117 L 644,1118 L 644,1120 L 643,1121 L 643,1125 L 642,1126 L 642,1133 L 643,1134 L 643,1138 L 644,1139 L 644,1141 L 645,1142 L 645,1143 L 646,1144 L 646,1145 L 647,1146 L 647,1147 L 651,1151 L 651,1152 L 652,1152 L 656,1156 L 657,1156 L 658,1157 L 659,1157 L 660,1158 L 661,1158 L 662,1159 L 664,1159 L 665,1160 L 667,1160 L 668,1161 L 680,1161 L 681,1160 L 683,1160 L 684,1159 L 686,1159 L 687,1158 L 688,1158 L 689,1157 L 690,1157 L 691,1156 L 692,1156 L 696,1152 L 697,1152 L 697,1151 L 701,1147 L 701,1146 L 702,1145 L 702,1144 L 703,1143 L 703,1142 L 704,1141 L 704,1138 L 705,1137 L 705,1133 L 706,1132 L 706,1127 L 705,1126 L 705,1121 L 704,1120 L 704,1118 L 703,1117 L 703,1116 L 702,1115 L 702,1114 L 701,1113 L 701,1112 L 698,1109 L 698,1108 L 695,1105 L 694,1105 L 691,1102 L 690,1102 L 689,1101 L 688,1101 L 687,1100 L 685,1100 L 684,1099 L 682,1099 L 681,1098 Z" fill="black" stroke="none" /><path d="M 1054,1063 L 1053,1064 L 1051,1064 L 1050,1065 L 1049,1065 L 1043,1071 L 1043,1072 L 1042,1073 L 1042,1075 L 1041,1076 L 1041,1084 L 1042,1085 L 1042,1087 L 1043,1088 L 1043,1089 L 1044,1090 L 1044,1091 L 1047,1094 L 1048,1094 L 1050,1096 L 1051,1096 L 1052,1097 L 1057,1097 L 1058,1098 L 1059,1098 L 1060,1097 L 1064,1097 L 1065,1096 L 1066,1096 L 1067,1095 L 1068,1095 L 1073,1090 L 1073,1089 L 1074,1088 L 1074,1087 L 1075,1086 L 1075,1083 L 1076,1082 L 1076,1079 L 1075,1078 L 1075,1074 L 1074,1073 L 1074,1072 L 1072,1070 L 1072,1069 L 1069,1066 L 1068,1066 L 1067,1065 L 1066,1065 L 1065,1064 L 1064,1064 L 1063,1063 Z" fill="black" stroke="none" /><path d="M 1116,1048 L 1115,1049 L 1114,1049 L 1113,1050 L 1112,1050 L 1111,1051 L 1110,1051 L 1106,1055 L 1106,1056 L 1104,1058 L 1104,1061 L 1103,1062 L 1103,1069 L 1104,1070 L 1104,1072 L 1105,1073 L 1105,1074 L 1106,1075 L 1106,1076 L 1109,1079 L 1110,1079 L 1112,1081 L 1113,1081 L 1114,1082 L 1117,1082 L 1118,1083 L 1122,1083 L 1123,1082 L 1126,1082 L 1127,1081 L 1128,1081 L 1129,1080 L 1130,1080 L 1135,1075 L 1135,1074 L 1136,1073 L 1136,1072 L 1137,1071 L 1137,1069 L 1138,1068 L 1138,1063 L 1137,1062 L 1137,1059 L 1136,1058 L 1136,1057 L 1134,1055 L 1134,1054 L 1131,1051 L 1130,1051 L 1129,1050 L 1128,1050 L 1127,1049 L 1125,1049 L 1124,1048 Z" fill="black" stroke="none" /><path d="M 650,1025 L 649,1026 L 647,1026 L 646,1027 L 645,1027 L 644,1028 L 643,1028 L 637,1034 L 637,1035 L 636,1036 L 636,1038 L 635,1039 L 635,1043 L 634,1044 L 635,1045 L 635,1049 L 636,1050 L 636,1052 L 637,1053 L 637,1054 L 639,1056 L 639,1057 L 641,1059 L 642,1059 L 644,1061 L 645,1061 L 646,1062 L 648,1062 L 649,1063 L 658,1063 L 659,1062 L 661,1062 L 662,1061 L 663,1061 L 665,1059 L 666,1059 L 669,1056 L 669,1055 L 670,1054 L 670,1053 L 671,1052 L 671,1051 L 672,1050 L 672,1047 L 673,1046 L 673,1043 L 672,1042 L 672,1038 L 671,1037 L 671,1036 L 670,1035 L 670,1034 L 667,1031 L 667,1030 L 666,1030 L 664,1028 L 663,1028 L 662,1027 L 661,1027 L 660,1026 L 658,1026 L 657,1025 Z" fill="black" stroke="none" /><path d="M 752,1010 L 751,1011 L 749,1011 L 748,1012 L 746,1012 L 745,1013 L 744,1013 L 743,1014 L 742,1014 L 741,1015 L 740,1015 L 738,1017 L 737,1017 L 733,1021 L 733,1022 L 730,1025 L 730,1026 L 729,1027 L 729,1028 L 728,1029 L 728,1031 L 727,1032 L 727,1034 L 726,1035 L 726,1048 L 727,1049 L 727,1052 L 728,1053 L 728,1055 L 730,1057 L 730,1058 L 731,1059 L 731,1060 L 734,1063 L 734,1064 L 735,1065 L 736,1065 L 740,1069 L 741,1069 L 742,1070 L 743,1070 L 744,1071 L 745,1071 L 746,1072 L 749,1072 L 750,1073 L 755,1073 L 756,1074 L 759,1074 L 760,1073 L 765,1073 L 766,1072 L 768,1072 L 769,1071 L 771,1071 L 773,1069 L 774,1069 L 775,1068 L 776,1068 L 784,1060 L 784,1059 L 785,1058 L 785,1057 L 786,1056 L 786,1055 L 787,1054 L 787,1053 L 788,1052 L 788,1050 L 789,1049 L 789,1035 L 788,1034 L 788,1032 L 787,1031 L 787,1029 L 786,1028 L 786,1027 L 784,1025 L 784,1024 L 781,1021 L 781,1020 L 779,1018 L 778,1018 L 775,1015 L 774,1015 L 773,1014 L 772,1014 L 771,1013 L 770,1013 L 769,1012 L 767,1012 L 766,1011 L 764,1011 L 763,1010 Z" fill="black" stroke="none" /><path d="M 994,1004 L 993,1005 L 991,1005 L 985,1011 L 985,1013 L 984,1014 L 984,1328 L 985,1329 L 985,1331 L 990,1336 L 991,1336 L 992,1337 L 993,1337 L 994,1338 L 1001,1338 L 1002,1337 L 1004,1337 L 1006,1335 L 1007,1335 L 1009,1333 L 1009,1332 L 1010,1331 L 1010,1330 L 1011,1329 L 1011,1326 L 1012,1325 L 1012,1017 L 1011,1016 L 1011,1013 L 1010,1012 L 1010,1011 L 1009,1010 L 1009,1009 L 1006,1006 L 1005,1006 L 1004,1005 L 1003,1005 L 1002,1004 Z" fill="black" stroke="none" /><path d="M 1116,983 L 1115,984 L 1114,984 L 1113,985 L 1112,985 L 1111,986 L 1110,986 L 1106,990 L 1106,991 L 1104,993 L 1104,995 L 1103,996 L 1103,1004 L 1104,1005 L 1104,1007 L 1105,1008 L 1105,1009 L 1106,1010 L 1106,1011 L 1110,1015 L 1111,1015 L 1112,1016 L 1113,1016 L 1114,1017 L 1116,1017 L 1117,1018 L 1123,1018 L 1124,1017 L 1126,1017 L 1127,1016 L 1128,1016 L 1129,1015 L 1130,1015 L 1135,1010 L 1135,1009 L 1136,1008 L 1136,1007 L 1137,1006 L 1137,1004 L 1138,1003 L 1138,998 L 1137,997 L 1137,994 L 1136,993 L 1136,992 L 1134,990 L 1134,989 L 1131,986 L 1130,986 L 1129,985 L 1128,985 L 1127,984 L 1125,984 L 1124,983 Z" fill="black" stroke="none" /><path d="M 636,963 L 635,964 L 634,964 L 633,965 L 632,965 L 631,966 L 630,966 L 627,969 L 627,970 L 626,971 L 626,972 L 625,973 L 625,974 L 624,975 L 624,984 L 625,985 L 625,987 L 626,988 L 626,989 L 631,994 L 632,994 L 633,995 L 634,995 L 635,996 L 646,996 L 647,995 L 648,995 L 649,994 L 650,994 L 655,989 L 655,988 L 656,987 L 656,986 L 657,985 L 657,975 L 656,974 L 656,972 L 654,970 L 654,969 L 651,966 L 650,966 L 649,965 L 648,965 L 647,964 L 646,964 L 645,963 Z" fill="black" stroke="none" /><path d="M 744,921 L 744,949 L 803,949 L 805,951 L 805,1099 L 806,1100 L 806,1101 L 807,1102 L 807,1103 L 810,1106 L 811,1106 L 813,1108 L 816,1108 L 817,1109 L 820,1109 L 821,1108 L 823,1108 L 824,1107 L 825,1107 L 826,1106 L 827,1106 L 830,1103 L 830,1102 L 831,1101 L 831,1100 L 832,1099 L 832,921 Z" fill="black" stroke="none" /><path d="M 691,900 L 690,901 L 685,901 L 684,902 L 682,902 L 681,903 L 679,903 L 678,904 L 677,904 L 675,906 L 674,906 L 670,910 L 670,911 L 667,914 L 667,915 L 666,916 L 666,917 L 665,918 L 665,920 L 664,921 L 664,925 L 663,926 L 663,931 L 664,932 L 664,937 L 665,938 L 665,940 L 667,942 L 667,943 L 668,944 L 668,945 L 671,948 L 671,949 L 672,949 L 675,952 L 676,952 L 678,954 L 679,954 L 680,955 L 682,955 L 683,956 L 686,956 L 687,957 L 696,957 L 697,956 L 700,956 L 701,955 L 703,955 L 705,953 L 706,953 L 707,952 L 708,952 L 715,945 L 715,944 L 716,943 L 716,942 L 717,941 L 717,940 L 718,939 L 718,937 L 719,936 L 719,932 L 720,931 L 720,927 L 719,926 L 719,921 L 718,920 L 718,919 L 717,918 L 717,916 L 716,915 L 716,914 L 713,911 L 713,910 L 710,907 L 709,907 L 707,905 L 706,905 L 704,903 L 702,903 L 701,902 L 699,902 L 698,901 L 693,901 L 692,900 Z" fill="black" stroke="none" /><path d="M 805,855 L 804,856 L 802,856 L 801,857 L 800,857 L 798,859 L 797,859 L 796,860 L 796,861 L 793,864 L 793,866 L 792,867 L 792,870 L 791,871 L 791,874 L 792,875 L 792,878 L 793,879 L 793,880 L 794,881 L 794,882 L 799,887 L 800,887 L 802,889 L 805,889 L 806,890 L 812,890 L 813,889 L 815,889 L 816,888 L 817,888 L 818,887 L 819,887 L 823,883 L 823,882 L 824,881 L 824,880 L 825,879 L 825,878 L 826,877 L 826,868 L 825,867 L 825,865 L 824,864 L 824,863 L 819,858 L 818,858 L 816,856 L 813,856 L 812,855 Z" fill="black" stroke="none" /><path d="M 1266,837 L 1265,838 L 1263,838 L 1262,839 L 1261,839 L 1220,880 L 1220,881 L 1219,882 L 1218,882 L 1218,883 L 1193,908 L 1193,1036 L 1192,1037 L 1192,1115 L 1191,1116 L 1104,1116 L 1103,1117 L 1095,1117 L 1088,1124 L 1088,1125 L 1063,1150 L 1063,1151 L 1047,1167 L 1047,1389 L 1046,1390 L 1045,1390 L 1044,1391 L 1043,1391 L 1042,1392 L 1041,1392 L 1040,1393 L 1039,1393 L 1032,1400 L 1032,1401 L 1030,1403 L 1030,1404 L 1029,1405 L 1029,1408 L 1028,1409 L 1028,1422 L 1029,1423 L 1029,1425 L 1030,1426 L 1030,1427 L 1031,1428 L 1031,1429 L 1034,1432 L 1034,1433 L 1036,1435 L 1037,1435 L 1039,1437 L 1040,1437 L 1042,1439 L 1044,1439 L 1045,1440 L 1047,1440 L 1048,1441 L 1059,1441 L 1060,1440 L 1063,1440 L 1064,1439 L 1065,1439 L 1066,1438 L 1067,1438 L 1069,1436 L 1070,1436 L 1075,1431 L 1075,1430 L 1076,1429 L 1076,1428 L 1077,1427 L 1077,1426 L 1078,1425 L 1078,1423 L 1079,1422 L 1079,1419 L 1080,1418 L 1080,1413 L 1079,1412 L 1079,1408 L 1078,1407 L 1078,1405 L 1077,1404 L 1077,1176 L 1110,1143 L 1141,1143 L 1142,1142 L 1178,1142 L 1179,1141 L 1212,1141 L 1213,1140 L 1215,1140 L 1219,1136 L 1219,1135 L 1220,1134 L 1220,1133 L 1221,1132 L 1221,1130 L 1222,1129 L 1222,919 L 1281,860 L 1281,859 L 1282,858 L 1282,857 L 1283,856 L 1283,848 L 1282,847 L 1282,846 L 1281,845 L 1281,844 L 1276,839 L 1275,839 L 1274,838 L 1272,838 L 1271,837 Z" fill="black" stroke="none" /><path d="M 1108,799 L 1107,800 L 1104,800 L 1103,801 L 1102,801 L 1101,802 L 1100,802 L 1099,803 L 1098,803 L 1092,809 L 1092,810 L 1091,811 L 1091,812 L 1090,813 L 1090,814 L 1089,815 L 1089,817 L 1088,818 L 1088,829 L 1089,830 L 1089,832 L 1090,833 L 1090,834 L 1091,835 L 1091,836 L 1093,838 L 1093,839 L 1097,843 L 1098,843 L 1100,845 L 1101,845 L 1102,846 L 1104,846 L 1105,847 L 1108,847 L 1109,848 L 1116,848 L 1117,847 L 1119,847 L 1120,846 L 1122,846 L 1123,845 L 1124,845 L 1125,844 L 1126,844 L 1133,837 L 1133,836 L 1134,835 L 1134,834 L 1135,833 L 1135,831 L 1136,830 L 1136,826 L 1137,825 L 1137,822 L 1136,821 L 1136,817 L 1135,816 L 1135,814 L 1134,813 L 1134,812 L 1133,811 L 1133,810 L 1130,807 L 1130,806 L 1129,806 L 1126,803 L 1125,803 L 1124,802 L 1123,802 L 1122,801 L 1121,801 L 1120,800 L 1118,800 L 1117,799 Z" fill="black" stroke="none" /><path d="M 718,781 L 717,782 L 713,782 L 712,783 L 709,783 L 708,784 L 706,784 L 705,785 L 704,785 L 703,786 L 702,786 L 701,787 L 700,787 L 698,789 L 697,789 L 693,793 L 692,793 L 689,796 L 689,797 L 686,800 L 686,801 L 684,803 L 684,804 L 683,805 L 683,806 L 682,807 L 682,809 L 681,810 L 681,811 L 680,812 L 680,815 L 679,816 L 679,823 L 678,824 L 678,827 L 679,828 L 679,834 L 680,835 L 680,839 L 681,840 L 681,841 L 682,842 L 682,843 L 683,844 L 683,846 L 685,848 L 685,849 L 687,851 L 687,852 L 696,861 L 697,861 L 699,863 L 700,863 L 701,864 L 702,864 L 703,865 L 704,865 L 705,866 L 706,866 L 707,867 L 709,867 L 710,868 L 713,868 L 714,869 L 721,869 L 722,870 L 723,869 L 731,869 L 732,868 L 735,868 L 736,867 L 738,867 L 739,866 L 740,866 L 741,865 L 742,865 L 743,864 L 744,864 L 745,863 L 746,863 L 748,861 L 749,861 L 753,857 L 754,857 L 754,856 L 758,852 L 758,851 L 760,849 L 760,848 L 762,846 L 762,845 L 763,844 L 763,842 L 764,841 L 764,839 L 765,838 L 765,836 L 766,835 L 766,830 L 767,829 L 767,822 L 766,821 L 766,816 L 765,815 L 765,812 L 764,811 L 764,809 L 763,808 L 763,807 L 762,806 L 762,805 L 761,804 L 761,803 L 759,801 L 759,800 L 756,797 L 756,796 L 751,791 L 750,791 L 748,789 L 747,789 L 745,787 L 744,787 L 743,786 L 742,786 L 741,785 L 740,785 L 739,784 L 737,784 L 736,783 L 733,783 L 732,782 L 728,782 L 727,781 Z" fill="black" stroke="none" /><path d="M 1147,748 L 1146,749 L 1142,749 L 1141,750 L 1140,750 L 1139,751 L 1138,751 L 1137,752 L 1136,752 L 1133,755 L 1132,755 L 1131,756 L 1131,757 L 1128,760 L 1128,761 L 1127,762 L 1127,763 L 1126,764 L 1126,765 L 1125,766 L 1125,768 L 1124,769 L 1124,781 L 1125,782 L 1125,784 L 1126,785 L 1126,787 L 1128,789 L 1128,790 L 1131,793 L 1131,794 L 1132,795 L 1133,795 L 1136,798 L 1137,798 L 1138,799 L 1139,799 L 1140,800 L 1141,800 L 1142,801 L 1144,801 L 1145,802 L 1156,802 L 1157,801 L 1160,801 L 1161,800 L 1162,800 L 1163,799 L 1164,799 L 1165,798 L 1166,798 L 1173,791 L 1173,790 L 1175,788 L 1175,787 L 1176,786 L 1176,784 L 1177,783 L 1177,780 L 1178,779 L 1178,771 L 1177,770 L 1177,767 L 1176,766 L 1176,764 L 1175,763 L 1175,762 L 1173,760 L 1173,759 L 1167,753 L 1166,753 L 1165,752 L 1164,752 L 1162,750 L 1160,750 L 1159,749 L 1156,749 L 1155,748 Z" fill="black" stroke="none" /><path d="M 1060,693 L 1059,694 L 1057,694 L 1056,695 L 1052,695 L 1051,696 L 1045,696 L 1044,697 L 1036,697 L 1035,698 L 1035,780 L 1036,781 L 1036,784 L 1037,785 L 1037,786 L 1038,787 L 1038,788 L 1040,790 L 1041,790 L 1043,792 L 1045,792 L 1046,793 L 1052,793 L 1053,792 L 1055,792 L 1056,791 L 1057,791 L 1061,787 L 1061,786 L 1062,785 L 1062,783 L 1063,782 L 1063,693 Z" fill="black" stroke="none" /><path d="M 722,685 L 721,686 L 719,686 L 717,688 L 716,688 L 714,690 L 714,691 L 712,693 L 712,694 L 711,695 L 711,704 L 712,705 L 712,707 L 715,710 L 715,711 L 718,714 L 719,714 L 720,715 L 720,716 L 721,717 L 722,717 L 724,719 L 724,720 L 725,720 L 772,767 L 773,767 L 774,768 L 774,769 L 775,770 L 776,770 L 778,772 L 778,773 L 779,773 L 826,820 L 827,820 L 875,868 L 876,868 L 877,869 L 877,870 L 878,871 L 879,871 L 888,880 L 888,881 L 889,882 L 889,1398 L 890,1399 L 890,1400 L 891,1401 L 891,1402 L 894,1405 L 895,1405 L 897,1407 L 899,1407 L 900,1408 L 907,1408 L 908,1407 L 909,1407 L 910,1406 L 911,1406 L 912,1405 L 913,1405 L 915,1403 L 915,1402 L 917,1400 L 917,1398 L 918,1397 L 918,866 L 917,865 L 916,865 L 876,825 L 875,825 L 873,823 L 873,822 L 872,822 L 836,786 L 835,786 L 834,785 L 834,784 L 833,783 L 832,783 L 792,743 L 791,743 L 750,702 L 749,702 L 748,701 L 748,700 L 747,699 L 746,699 L 734,687 L 733,687 L 732,686 L 730,686 L 729,685 Z" fill="black" stroke="none" /><path d="M 650,666 L 649,667 L 644,667 L 643,668 L 641,668 L 640,669 L 639,669 L 638,670 L 637,670 L 636,671 L 635,671 L 634,672 L 633,672 L 631,674 L 630,674 L 626,678 L 626,679 L 622,683 L 622,684 L 621,685 L 621,686 L 620,687 L 620,688 L 619,689 L 619,691 L 618,692 L 618,694 L 617,695 L 617,709 L 618,710 L 618,713 L 619,714 L 619,716 L 620,717 L 620,718 L 621,719 L 621,720 L 623,722 L 623,723 L 626,726 L 626,727 L 629,730 L 630,730 L 633,733 L 634,733 L 635,734 L 636,734 L 637,735 L 638,735 L 639,736 L 641,736 L 642,737 L 644,737 L 645,738 L 649,738 L 650,739 L 656,739 L 657,738 L 661,738 L 662,737 L 664,737 L 665,736 L 667,736 L 668,735 L 669,735 L 670,734 L 671,734 L 672,733 L 673,733 L 677,729 L 678,729 L 680,727 L 680,726 L 683,723 L 683,722 L 685,720 L 685,719 L 686,718 L 686,716 L 687,715 L 687,714 L 688,713 L 688,710 L 689,709 L 689,696 L 688,695 L 688,692 L 687,691 L 687,690 L 686,689 L 686,687 L 685,686 L 685,685 L 683,683 L 683,682 L 680,679 L 680,678 L 677,675 L 676,675 L 673,672 L 672,672 L 671,671 L 670,671 L 669,670 L 668,670 L 667,669 L 666,669 L 665,668 L 663,668 L 662,667 L 657,667 L 656,666 Z" fill="black" stroke="none" /><path d="M 1122,652 L 1121,653 L 1119,653 L 1118,654 L 1115,654 L 1114,655 L 1113,655 L 1112,656 L 1111,656 L 1110,657 L 1109,657 L 1108,658 L 1107,658 L 1098,667 L 1098,668 L 1097,669 L 1097,670 L 1095,672 L 1095,673 L 1094,674 L 1094,676 L 1093,677 L 1093,679 L 1092,680 L 1092,687 L 1091,688 L 1091,689 L 1092,690 L 1092,697 L 1093,698 L 1093,700 L 1094,701 L 1094,703 L 1095,704 L 1095,705 L 1097,707 L 1097,708 L 1098,709 L 1098,710 L 1105,717 L 1106,717 L 1109,720 L 1110,720 L 1111,721 L 1112,721 L 1113,722 L 1115,722 L 1116,723 L 1118,723 L 1119,724 L 1123,724 L 1124,725 L 1132,725 L 1133,724 L 1137,724 L 1138,723 L 1140,723 L 1141,722 L 1143,722 L 1145,720 L 1146,720 L 1147,719 L 1148,719 L 1150,717 L 1151,717 L 1156,712 L 1156,711 L 1159,708 L 1159,707 L 1160,706 L 1160,705 L 1161,704 L 1161,703 L 1162,702 L 1162,700 L 1163,699 L 1163,696 L 1164,695 L 1164,682 L 1163,681 L 1163,678 L 1162,677 L 1162,675 L 1161,674 L 1161,673 L 1160,672 L 1160,671 L 1159,670 L 1159,669 L 1157,667 L 1157,666 L 1150,659 L 1149,659 L 1148,658 L 1147,658 L 1145,656 L 1144,656 L 1143,655 L 1141,655 L 1140,654 L 1138,654 L 1137,653 L 1135,653 L 1134,652 Z" fill="black" stroke="none" /><path d="M 920,652 L 919,653 L 917,653 L 916,654 L 914,654 L 913,655 L 912,655 L 911,656 L 910,656 L 908,658 L 907,658 L 900,665 L 900,666 L 899,667 L 899,668 L 898,669 L 898,670 L 897,671 L 897,672 L 896,673 L 896,675 L 895,676 L 895,680 L 894,681 L 894,688 L 895,689 L 895,693 L 896,694 L 896,696 L 897,697 L 897,698 L 898,699 L 898,700 L 899,701 L 899,702 L 902,705 L 902,706 L 906,710 L 907,710 L 909,712 L 910,712 L 911,713 L 912,713 L 913,714 L 914,714 L 915,715 L 917,715 L 918,716 L 920,716 L 921,717 L 932,717 L 933,716 L 936,716 L 937,715 L 939,715 L 940,714 L 941,714 L 942,713 L 943,713 L 944,712 L 945,712 L 949,708 L 950,708 L 951,707 L 951,706 L 954,703 L 954,702 L 955,701 L 955,700 L 956,699 L 956,698 L 957,697 L 957,696 L 958,695 L 958,693 L 959,692 L 959,677 L 958,676 L 958,674 L 957,673 L 957,671 L 956,670 L 956,669 L 955,668 L 955,667 L 952,664 L 952,663 L 949,660 L 948,660 L 945,657 L 944,657 L 942,655 L 941,655 L 940,654 L 938,654 L 937,653 L 935,653 L 934,652 Z" fill="black" stroke="none" /><path d="M 1384,636 L 1383,637 L 1380,637 L 1379,638 L 1377,638 L 1376,639 L 1374,639 L 1373,640 L 1372,640 L 1370,642 L 1369,642 L 1368,643 L 1367,643 L 1364,646 L 1363,646 L 1359,650 L 1359,651 L 1356,654 L 1356,655 L 1355,656 L 1355,657 L 1353,659 L 1353,661 L 1352,662 L 1352,664 L 1351,665 L 1351,666 L 1350,667 L 1350,673 L 1349,674 L 1349,682 L 1350,683 L 1350,688 L 1351,689 L 1351,691 L 1352,692 L 1352,694 L 1353,695 L 1353,696 L 1355,698 L 1355,699 L 1357,701 L 1357,702 L 1366,711 L 1367,711 L 1370,714 L 1371,714 L 1372,715 L 1373,715 L 1374,716 L 1376,716 L 1377,717 L 1379,717 L 1380,718 L 1382,718 L 1383,719 L 1398,719 L 1399,718 L 1402,718 L 1403,717 L 1406,717 L 1407,716 L 1408,716 L 1409,715 L 1410,715 L 1411,714 L 1412,714 L 1414,712 L 1415,712 L 1417,710 L 1418,710 L 1423,705 L 1423,704 L 1426,701 L 1426,700 L 1427,699 L 1427,698 L 1429,696 L 1429,695 L 1430,694 L 1430,691 L 1431,690 L 1431,689 L 1432,688 L 1432,685 L 1433,684 L 1433,670 L 1432,669 L 1432,666 L 1431,665 L 1431,664 L 1430,663 L 1430,661 L 1429,660 L 1429,659 L 1428,658 L 1428,657 L 1427,656 L 1427,655 L 1424,652 L 1424,651 L 1418,645 L 1417,645 L 1414,642 L 1413,642 L 1412,641 L 1411,641 L 1410,640 L 1409,640 L 1408,639 L 1406,639 L 1405,638 L 1403,638 L 1402,637 L 1400,637 L 1399,636 Z" fill="black" stroke="none" /><path d="M 793,636 L 792,637 L 791,637 L 790,638 L 789,638 L 788,639 L 787,639 L 783,643 L 783,644 L 782,645 L 782,646 L 781,647 L 781,649 L 780,650 L 780,658 L 781,659 L 781,661 L 782,662 L 782,663 L 784,665 L 784,666 L 785,667 L 786,667 L 789,670 L 791,670 L 792,671 L 794,671 L 795,672 L 801,672 L 802,671 L 804,671 L 805,670 L 806,670 L 807,669 L 808,669 L 813,664 L 813,663 L 814,662 L 814,661 L 815,660 L 815,658 L 816,657 L 816,651 L 815,650 L 815,647 L 814,646 L 814,645 L 812,643 L 812,642 L 810,640 L 809,640 L 807,638 L 806,638 L 805,637 L 804,637 L 803,636 Z" fill="black" stroke="none" /><path d="M 702,616 L 701,617 L 697,617 L 696,618 L 695,618 L 693,620 L 692,620 L 689,623 L 689,624 L 688,625 L 688,626 L 687,627 L 687,629 L 686,630 L 686,637 L 687,638 L 687,640 L 688,641 L 688,642 L 689,643 L 689,644 L 692,647 L 693,647 L 695,649 L 696,649 L 697,650 L 700,650 L 701,651 L 705,651 L 706,650 L 709,650 L 710,649 L 711,649 L 712,648 L 713,648 L 717,644 L 717,643 L 719,641 L 719,639 L 720,638 L 720,629 L 719,628 L 719,626 L 718,625 L 718,624 L 713,619 L 712,619 L 711,618 L 710,618 L 709,617 L 706,617 L 705,616 Z" fill="black" stroke="none" /><path d="M 1147,615 L 1147,616 L 1146,617 L 1146,619 L 1145,620 L 1145,621 L 1144,622 L 1144,623 L 1143,624 L 1143,625 L 1142,626 L 1142,627 L 1141,628 L 1141,629 L 1140,630 L 1140,631 L 1139,632 L 1139,633 L 1138,634 L 1138,636 L 1139,636 L 1141,638 L 1142,638 L 1143,639 L 1144,639 L 1145,640 L 1146,640 L 1147,641 L 1148,641 L 1149,642 L 1150,642 L 1152,644 L 1153,644 L 1154,645 L 1155,645 L 1156,646 L 1157,646 L 1158,647 L 1159,647 L 1160,648 L 1161,648 L 1162,649 L 1163,649 L 1165,651 L 1166,651 L 1167,652 L 1168,652 L 1169,653 L 1170,653 L 1171,654 L 1172,654 L 1173,655 L 1174,655 L 1176,657 L 1177,657 L 1207,687 L 1207,688 L 1208,689 L 1209,689 L 1210,690 L 1210,691 L 1263,744 L 1263,745 L 1227,781 L 1227,782 L 1168,841 L 1168,842 L 1166,844 L 1165,844 L 1165,845 L 1113,897 L 1113,898 L 1111,900 L 1110,900 L 1110,901 L 1056,955 L 1043,955 L 1042,956 L 1039,956 L 1038,957 L 1037,957 L 1036,958 L 1035,958 L 1034,959 L 1033,959 L 1029,963 L 1028,963 L 1028,964 L 1024,968 L 1024,969 L 1023,970 L 1023,971 L 1022,972 L 1022,974 L 1021,975 L 1021,977 L 1020,978 L 1020,991 L 1021,992 L 1021,994 L 1022,995 L 1022,996 L 1023,997 L 1023,998 L 1024,999 L 1024,1000 L 1025,1001 L 1025,1002 L 1031,1008 L 1032,1008 L 1034,1010 L 1035,1010 L 1036,1011 L 1037,1011 L 1038,1012 L 1040,1012 L 1041,1013 L 1045,1013 L 1046,1014 L 1052,1014 L 1053,1013 L 1057,1013 L 1058,1012 L 1061,1012 L 1063,1010 L 1064,1010 L 1065,1009 L 1066,1009 L 1069,1006 L 1070,1006 L 1071,1005 L 1071,1004 L 1074,1001 L 1074,1000 L 1075,999 L 1075,998 L 1076,997 L 1076,996 L 1077,995 L 1077,994 L 1078,993 L 1078,988 L 1079,987 L 1079,980 L 1078,979 L 1078,975 L 1110,943 L 1110,942 L 1170,882 L 1170,881 L 1171,880 L 1172,880 L 1172,879 L 1229,822 L 1229,821 L 1230,820 L 1231,820 L 1231,819 L 1233,817 L 1234,817 L 1234,816 L 1278,772 L 1280,774 L 1281,774 L 1283,776 L 1284,776 L 1285,777 L 1286,777 L 1287,778 L 1288,778 L 1289,779 L 1291,779 L 1292,780 L 1295,780 L 1296,781 L 1312,781 L 1313,780 L 1316,780 L 1317,779 L 1319,779 L 1320,778 L 1321,778 L 1322,777 L 1324,777 L 1326,775 L 1327,775 L 1329,773 L 1330,773 L 1338,765 L 1338,764 L 1340,762 L 1340,761 L 1341,760 L 1341,759 L 1342,758 L 1342,757 L 1343,756 L 1343,754 L 1344,753 L 1344,751 L 1345,750 L 1345,746 L 1346,745 L 1346,735 L 1345,734 L 1345,729 L 1344,728 L 1344,726 L 1343,725 L 1343,724 L 1342,723 L 1342,721 L 1341,720 L 1341,719 L 1339,717 L 1339,716 L 1336,713 L 1336,712 L 1332,708 L 1331,708 L 1328,705 L 1327,705 L 1325,703 L 1324,703 L 1323,702 L 1321,702 L 1320,701 L 1319,701 L 1318,700 L 1316,700 L 1315,699 L 1310,699 L 1309,698 L 1299,698 L 1298,699 L 1294,699 L 1293,700 L 1291,700 L 1290,701 L 1288,701 L 1287,702 L 1286,702 L 1285,703 L 1284,703 L 1283,704 L 1282,704 L 1280,706 L 1279,706 L 1271,714 L 1270,714 L 1189,633 L 1188,633 L 1187,632 L 1186,632 L 1185,631 L 1184,631 L 1183,630 L 1181,630 L 1180,629 L 1179,629 L 1178,628 L 1177,628 L 1176,627 L 1175,627 L 1174,626 L 1172,626 L 1171,625 L 1170,625 L 1169,624 L 1168,624 L 1167,623 L 1166,623 L 1165,622 L 1164,622 L 1163,621 L 1161,621 L 1160,620 L 1159,620 L 1158,619 L 1157,619 L 1156,618 L 1155,618 L 1154,617 L 1152,617 L 1151,616 L 1150,616 L 1149,615 Z" fill="black" stroke="none" /><path d="M 908,612 L 907,613 L 906,613 L 901,618 L 900,618 L 895,623 L 894,623 L 890,627 L 889,627 L 885,631 L 884,631 L 879,636 L 878,636 L 873,641 L 872,641 L 867,646 L 866,646 L 862,650 L 861,650 L 856,655 L 855,655 L 851,659 L 850,659 L 845,664 L 844,664 L 839,669 L 838,669 L 837,670 L 837,700 L 838,701 L 838,714 L 847,723 L 848,723 L 850,725 L 850,726 L 851,726 L 872,747 L 873,747 L 893,767 L 894,767 L 916,789 L 917,789 L 939,811 L 940,811 L 962,833 L 963,833 L 965,835 L 964,836 L 964,837 L 962,839 L 962,840 L 960,842 L 960,843 L 959,844 L 959,845 L 958,846 L 958,847 L 957,848 L 957,851 L 956,852 L 956,854 L 955,855 L 955,862 L 954,863 L 954,864 L 955,865 L 955,872 L 956,873 L 956,876 L 957,877 L 957,879 L 958,880 L 958,881 L 959,882 L 959,884 L 961,886 L 961,887 L 962,888 L 962,889 L 972,899 L 973,899 L 975,901 L 976,901 L 977,902 L 978,902 L 979,903 L 980,903 L 981,904 L 982,904 L 984,906 L 984,944 L 985,945 L 985,947 L 988,950 L 988,951 L 989,951 L 991,953 L 993,953 L 994,954 L 997,954 L 998,955 L 999,954 L 1003,954 L 1004,953 L 1005,953 L 1007,951 L 1008,951 L 1009,950 L 1009,949 L 1011,947 L 1011,946 L 1012,945 L 1012,906 L 1014,904 L 1015,904 L 1016,903 L 1017,903 L 1018,902 L 1019,902 L 1020,901 L 1021,901 L 1023,899 L 1024,899 L 1028,895 L 1029,895 L 1030,894 L 1030,893 L 1034,889 L 1034,888 L 1036,886 L 1036,885 L 1037,884 L 1037,883 L 1038,882 L 1038,880 L 1039,879 L 1039,878 L 1040,877 L 1040,874 L 1041,873 L 1041,866 L 1042,865 L 1042,862 L 1041,861 L 1041,855 L 1040,854 L 1040,850 L 1039,849 L 1039,848 L 1038,847 L 1038,846 L 1037,845 L 1037,843 L 1035,841 L 1035,840 L 1033,838 L 1033,837 L 1024,828 L 1023,828 L 1022,827 L 1021,827 L 1019,825 L 1018,825 L 1017,824 L 1015,824 L 1014,823 L 1013,823 L 1012,822 L 1012,697 L 1011,696 L 1006,696 L 1005,695 L 1001,695 L 1000,694 L 997,694 L 996,693 L 994,693 L 993,692 L 990,692 L 989,691 L 988,691 L 987,690 L 985,690 L 984,689 L 984,809 L 983,810 L 983,815 L 984,816 L 983,817 L 982,817 L 977,812 L 976,812 L 958,794 L 957,794 L 941,778 L 940,778 L 923,761 L 922,761 L 904,743 L 903,743 L 887,727 L 886,727 L 867,708 L 866,708 L 860,702 L 860,680 L 861,679 L 862,679 L 866,675 L 867,675 L 872,670 L 873,670 L 877,666 L 878,666 L 883,661 L 884,661 L 888,657 L 889,657 L 894,652 L 895,652 L 899,648 L 900,648 L 904,644 L 905,644 L 910,639 L 911,639 L 915,635 L 916,635 L 918,633 L 918,632 L 917,631 L 917,630 L 915,628 L 915,627 L 914,626 L 914,625 L 913,624 L 913,623 L 912,622 L 912,620 L 911,619 L 911,618 L 910,617 L 910,615 L 909,614 L 909,613 Z" fill="black" stroke="none" /><path d="M 455,544 L 454,545 L 446,545 L 445,546 L 443,546 L 442,547 L 440,547 L 439,548 L 438,548 L 437,549 L 436,549 L 435,550 L 434,550 L 433,551 L 432,551 L 429,554 L 428,554 L 422,560 L 422,561 L 419,564 L 419,565 L 418,566 L 418,567 L 417,568 L 417,569 L 416,570 L 416,571 L 415,572 L 415,574 L 414,575 L 414,577 L 413,578 L 413,586 L 412,587 L 412,589 L 413,590 L 413,598 L 414,599 L 414,601 L 415,602 L 415,604 L 416,605 L 416,606 L 417,607 L 417,608 L 418,609 L 418,610 L 420,612 L 420,613 L 422,615 L 422,616 L 428,622 L 429,622 L 432,625 L 433,625 L 434,626 L 435,626 L 436,627 L 437,627 L 438,628 L 439,628 L 440,629 L 442,629 L 443,630 L 446,630 L 447,631 L 452,631 L 453,632 L 457,632 L 458,631 L 465,631 L 466,630 L 468,630 L 469,629 L 472,629 L 473,628 L 474,628 L 475,627 L 476,627 L 477,626 L 478,626 L 480,624 L 481,624 L 483,622 L 484,622 L 489,617 L 489,616 L 492,613 L 492,612 L 494,610 L 494,609 L 495,608 L 495,607 L 496,606 L 496,605 L 497,604 L 497,601 L 498,600 L 498,599 L 499,598 L 521,598 L 522,599 L 522,603 L 523,604 L 523,632 L 524,633 L 524,645 L 525,646 L 525,656 L 526,657 L 526,665 L 527,666 L 527,673 L 528,674 L 528,679 L 529,680 L 529,686 L 530,687 L 530,692 L 531,693 L 531,697 L 532,698 L 532,703 L 533,704 L 533,708 L 534,709 L 534,712 L 535,713 L 535,717 L 536,718 L 536,722 L 537,723 L 537,726 L 538,727 L 538,730 L 539,731 L 539,735 L 540,736 L 540,738 L 541,739 L 541,742 L 542,743 L 542,746 L 543,747 L 543,749 L 544,750 L 544,753 L 545,754 L 545,756 L 546,757 L 546,759 L 547,760 L 547,762 L 548,763 L 548,766 L 549,767 L 549,769 L 550,770 L 550,771 L 551,772 L 551,774 L 552,775 L 552,777 L 553,778 L 553,780 L 554,781 L 554,782 L 555,783 L 555,785 L 556,786 L 556,787 L 557,788 L 557,790 L 558,791 L 558,793 L 559,794 L 559,795 L 560,796 L 560,797 L 561,798 L 561,799 L 562,800 L 562,801 L 563,802 L 563,804 L 564,805 L 564,806 L 565,807 L 565,808 L 566,809 L 566,810 L 567,811 L 567,812 L 568,813 L 568,814 L 569,815 L 569,816 L 570,817 L 570,818 L 571,819 L 571,820 L 572,821 L 572,822 L 573,823 L 573,824 L 574,825 L 574,826 L 575,827 L 575,828 L 576,829 L 576,830 L 578,832 L 578,833 L 579,834 L 579,835 L 580,836 L 580,837 L 581,838 L 581,839 L 583,841 L 583,842 L 584,843 L 584,844 L 586,846 L 586,847 L 587,848 L 587,849 L 589,851 L 589,852 L 590,853 L 590,854 L 592,856 L 592,857 L 594,859 L 594,860 L 595,861 L 595,862 L 597,864 L 597,865 L 599,867 L 599,868 L 601,870 L 601,871 L 603,873 L 603,874 L 605,876 L 605,877 L 608,880 L 608,881 L 611,884 L 611,885 L 613,887 L 613,888 L 617,892 L 617,893 L 620,896 L 620,897 L 623,900 L 623,901 L 627,905 L 627,906 L 630,909 L 631,909 L 635,905 L 636,905 L 646,895 L 647,895 L 659,883 L 660,883 L 666,877 L 663,874 L 663,873 L 660,870 L 660,869 L 657,866 L 657,865 L 654,862 L 654,861 L 652,859 L 652,858 L 650,856 L 650,855 L 648,853 L 648,852 L 646,850 L 646,849 L 644,847 L 644,846 L 643,845 L 643,844 L 641,842 L 641,841 L 639,839 L 639,838 L 638,837 L 638,836 L 636,834 L 636,833 L 635,832 L 635,831 L 633,829 L 633,828 L 632,827 L 632,826 L 631,825 L 631,824 L 629,822 L 629,821 L 628,820 L 628,819 L 627,818 L 627,817 L 626,816 L 626,815 L 625,814 L 625,813 L 623,811 L 623,810 L 622,809 L 622,808 L 621,807 L 621,806 L 620,805 L 620,804 L 619,803 L 619,802 L 618,801 L 618,800 L 617,799 L 617,798 L 616,797 L 616,796 L 615,795 L 615,794 L 614,793 L 614,792 L 613,791 L 613,790 L 612,789 L 612,788 L 611,787 L 611,786 L 610,785 L 610,783 L 609,782 L 609,781 L 608,780 L 608,779 L 607,778 L 607,776 L 606,775 L 606,774 L 605,773 L 605,772 L 604,771 L 604,769 L 603,768 L 603,767 L 602,766 L 602,765 L 601,764 L 601,762 L 600,761 L 600,759 L 599,758 L 599,757 L 598,756 L 598,754 L 597,753 L 597,751 L 596,750 L 596,748 L 595,747 L 595,746 L 594,745 L 594,742 L 593,741 L 593,740 L 592,739 L 592,736 L 591,735 L 591,732 L 590,731 L 590,729 L 589,728 L 589,726 L 588,725 L 588,722 L 587,721 L 587,719 L 586,718 L 586,715 L 585,714 L 585,710 L 584,709 L 584,706 L 583,705 L 583,702 L 582,701 L 582,698 L 581,697 L 581,692 L 580,691 L 580,688 L 579,687 L 579,682 L 578,681 L 578,676 L 577,675 L 577,670 L 576,669 L 576,663 L 575,662 L 575,654 L 574,653 L 574,645 L 573,644 L 573,634 L 572,633 L 572,615 L 571,614 L 571,599 L 572,598 L 661,598 L 662,597 L 904,597 L 904,592 L 903,591 L 903,586 L 902,585 L 902,569 L 901,568 L 495,568 L 494,567 L 494,566 L 492,564 L 492,563 L 489,560 L 489,559 L 484,554 L 483,554 L 481,552 L 480,552 L 478,550 L 477,550 L 476,549 L 475,549 L 474,548 L 472,548 L 471,547 L 470,547 L 469,546 L 466,546 L 465,545 L 457,545 L 456,544 Z" fill="black" stroke="none" /><path d="M 1194,489 L 1193,490 L 1192,490 L 1190,492 L 1189,492 L 1187,494 L 1186,494 L 1183,497 L 1182,497 L 1180,499 L 1179,499 L 1177,501 L 1176,501 L 1173,504 L 1172,504 L 1169,507 L 1168,507 L 1166,509 L 1165,509 L 1163,511 L 1162,511 L 1159,514 L 1158,514 L 1156,516 L 1155,516 L 1152,519 L 1151,519 L 1149,521 L 1148,521 L 1146,523 L 1146,524 L 1147,525 L 1147,527 L 1148,528 L 1148,530 L 1149,531 L 1149,533 L 1150,534 L 1150,537 L 1151,538 L 1151,541 L 1152,542 L 1152,545 L 1153,546 L 1153,549 L 1154,550 L 1154,551 L 1155,551 L 1158,548 L 1159,548 L 1162,545 L 1163,545 L 1165,543 L 1166,543 L 1169,540 L 1170,540 L 1172,538 L 1173,538 L 1176,535 L 1177,535 L 1180,532 L 1181,532 L 1183,530 L 1184,530 L 1187,527 L 1188,527 L 1191,524 L 1192,524 L 1194,522 L 1195,522 L 1198,519 L 1199,519 L 1200,518 L 1419,518 L 1420,517 L 1423,517 L 1424,516 L 1425,516 L 1426,515 L 1427,515 L 1430,512 L 1430,511 L 1431,510 L 1431,509 L 1432,508 L 1432,499 L 1431,498 L 1431,497 L 1429,495 L 1429,494 L 1427,492 L 1426,492 L 1425,491 L 1424,491 L 1423,490 L 1195,490 Z" fill="black" stroke="none" /><path d="M 1018,488 L 1017,489 L 1011,489 L 1010,490 L 1008,490 L 1007,491 L 1004,491 L 1003,492 L 1001,492 L 1000,493 L 998,493 L 997,494 L 996,494 L 995,495 L 994,495 L 993,496 L 992,496 L 991,497 L 990,497 L 989,498 L 988,498 L 987,499 L 986,499 L 984,501 L 983,501 L 982,502 L 981,502 L 978,505 L 977,505 L 971,511 L 970,511 L 968,513 L 968,514 L 962,520 L 962,521 L 959,524 L 959,525 L 958,526 L 958,527 L 956,529 L 956,530 L 955,531 L 955,532 L 954,533 L 954,534 L 953,535 L 953,536 L 952,537 L 952,538 L 951,539 L 951,541 L 950,542 L 950,544 L 949,545 L 949,547 L 948,548 L 948,550 L 947,551 L 947,556 L 946,557 L 946,562 L 945,563 L 945,579 L 946,580 L 946,586 L 947,587 L 947,591 L 948,592 L 948,594 L 949,595 L 949,597 L 950,598 L 950,600 L 951,601 L 951,603 L 952,604 L 952,605 L 953,606 L 953,607 L 954,608 L 954,609 L 955,610 L 955,611 L 956,612 L 956,613 L 958,615 L 958,616 L 959,617 L 959,618 L 962,621 L 962,622 L 966,626 L 966,627 L 972,633 L 973,633 L 978,638 L 979,638 L 981,640 L 982,640 L 984,642 L 985,642 L 987,644 L 988,644 L 989,645 L 990,645 L 991,646 L 992,646 L 993,647 L 994,647 L 995,648 L 997,648 L 998,649 L 1000,649 L 1001,650 L 1002,650 L 1003,651 L 1006,651 L 1007,652 L 1010,652 L 1011,653 L 1015,653 L 1016,654 L 1041,654 L 1042,653 L 1046,653 L 1047,652 L 1050,652 L 1051,651 L 1054,651 L 1055,650 L 1056,650 L 1057,649 L 1059,649 L 1060,648 L 1062,648 L 1063,647 L 1064,647 L 1066,645 L 1068,645 L 1070,643 L 1071,643 L 1072,642 L 1073,642 L 1075,640 L 1076,640 L 1079,637 L 1080,637 L 1085,632 L 1086,632 L 1090,628 L 1090,627 L 1095,622 L 1095,621 L 1097,619 L 1097,618 L 1099,616 L 1099,615 L 1101,613 L 1101,612 L 1102,611 L 1102,610 L 1103,609 L 1103,608 L 1104,607 L 1104,606 L 1105,605 L 1105,604 L 1106,603 L 1106,601 L 1107,600 L 1107,598 L 1108,597 L 1108,595 L 1109,594 L 1109,591 L 1110,590 L 1110,586 L 1111,585 L 1111,580 L 1112,579 L 1112,563 L 1111,562 L 1111,557 L 1110,556 L 1110,552 L 1109,551 L 1109,548 L 1108,547 L 1108,545 L 1107,544 L 1107,542 L 1106,541 L 1106,539 L 1105,538 L 1105,537 L 1104,536 L 1104,535 L 1103,534 L 1103,533 L 1102,532 L 1102,531 L 1100,529 L 1100,528 L 1099,527 L 1099,526 L 1097,524 L 1097,523 L 1094,520 L 1094,519 L 1088,513 L 1088,512 L 1087,511 L 1086,511 L 1080,505 L 1079,505 L 1076,502 L 1075,502 L 1074,501 L 1073,501 L 1071,499 L 1070,499 L 1069,498 L 1068,498 L 1067,497 L 1066,497 L 1065,496 L 1064,496 L 1063,495 L 1062,495 L 1061,494 L 1060,494 L 1059,493 L 1057,493 L 1056,492 L 1054,492 L 1053,491 L 1050,491 L 1049,490 L 1047,490 L 1046,489 L 1041,489 L 1040,488 Z" fill="black" stroke="none" /><path d="M 722,485 L 721,486 L 717,486 L 716,487 L 715,487 L 714,488 L 713,488 L 711,490 L 710,490 L 709,491 L 709,492 L 707,494 L 707,495 L 706,496 L 706,497 L 705,498 L 705,509 L 706,510 L 706,511 L 707,512 L 707,513 L 713,519 L 714,519 L 715,520 L 717,520 L 718,521 L 727,521 L 728,520 L 730,520 L 731,519 L 732,519 L 738,513 L 738,512 L 739,511 L 739,509 L 740,508 L 740,499 L 739,498 L 739,496 L 738,495 L 738,494 L 736,492 L 736,491 L 735,490 L 734,490 L 732,488 L 731,488 L 730,487 L 729,487 L 728,486 L 724,486 L 723,485 Z" fill="black" stroke="none" /><path d="M 647,483 L 646,484 L 644,484 L 643,485 L 641,485 L 638,488 L 637,488 L 636,489 L 636,490 L 633,493 L 633,494 L 632,495 L 632,497 L 631,498 L 631,507 L 632,508 L 632,510 L 633,511 L 633,512 L 634,513 L 634,514 L 639,519 L 640,519 L 641,520 L 642,520 L 643,521 L 645,521 L 646,522 L 655,522 L 656,521 L 658,521 L 659,520 L 660,520 L 661,519 L 662,519 L 666,515 L 666,514 L 668,512 L 668,511 L 669,510 L 669,507 L 670,506 L 670,499 L 669,498 L 669,495 L 667,493 L 667,492 L 665,490 L 665,489 L 664,488 L 663,488 L 661,486 L 660,486 L 659,485 L 658,485 L 657,484 L 655,484 L 654,483 Z" fill="black" stroke="none" /><path d="M 702,360 L 701,361 L 698,361 L 697,362 L 695,362 L 694,363 L 692,363 L 691,364 L 690,364 L 688,366 L 687,366 L 686,367 L 685,367 L 683,369 L 682,369 L 674,377 L 674,378 L 672,380 L 672,381 L 671,382 L 671,383 L 670,384 L 670,385 L 668,387 L 668,389 L 667,390 L 667,392 L 666,393 L 666,396 L 665,397 L 665,413 L 666,414 L 666,417 L 667,418 L 667,420 L 668,421 L 668,423 L 669,424 L 669,425 L 670,426 L 670,427 L 672,429 L 672,430 L 674,432 L 674,433 L 682,441 L 683,441 L 685,443 L 686,443 L 688,445 L 689,445 L 690,446 L 691,446 L 692,447 L 694,447 L 695,448 L 697,448 L 698,449 L 701,449 L 702,450 L 718,450 L 719,449 L 722,449 L 723,448 L 725,448 L 726,447 L 728,447 L 729,446 L 730,446 L 731,445 L 732,445 L 734,443 L 735,443 L 737,441 L 738,441 L 745,434 L 746,434 L 778,466 L 779,466 L 816,503 L 817,503 L 819,505 L 819,506 L 820,506 L 826,512 L 828,512 L 829,513 L 832,513 L 833,514 L 835,514 L 836,515 L 838,515 L 839,516 L 842,516 L 843,517 L 846,517 L 847,518 L 849,518 L 850,519 L 853,519 L 854,520 L 856,520 L 857,521 L 860,521 L 861,522 L 864,522 L 865,523 L 867,523 L 868,524 L 870,524 L 871,525 L 874,525 L 875,526 L 878,526 L 879,527 L 881,527 L 882,528 L 885,528 L 886,529 L 889,529 L 890,530 L 892,530 L 893,531 L 896,531 L 897,532 L 899,532 L 900,533 L 903,533 L 904,534 L 907,534 L 907,533 L 908,532 L 908,530 L 909,529 L 909,527 L 910,526 L 910,525 L 911,524 L 911,522 L 912,521 L 912,520 L 913,519 L 913,518 L 914,517 L 914,516 L 915,515 L 915,514 L 916,513 L 916,512 L 915,511 L 913,511 L 912,510 L 909,510 L 908,509 L 906,509 L 905,508 L 903,508 L 902,507 L 899,507 L 898,506 L 896,506 L 895,505 L 893,505 L 892,504 L 889,504 L 888,503 L 886,503 L 885,502 L 883,502 L 882,501 L 879,501 L 878,500 L 876,500 L 875,499 L 873,499 L 872,498 L 869,498 L 868,497 L 866,497 L 865,496 L 863,496 L 862,495 L 859,495 L 858,494 L 856,494 L 855,493 L 853,493 L 852,492 L 849,492 L 848,491 L 846,491 L 845,490 L 843,490 L 842,489 L 839,489 L 832,482 L 831,482 L 830,481 L 830,480 L 829,480 L 803,454 L 802,454 L 776,428 L 775,428 L 755,408 L 755,398 L 754,397 L 754,393 L 753,392 L 753,390 L 752,389 L 752,388 L 751,387 L 751,385 L 749,383 L 749,382 L 748,381 L 748,380 L 745,377 L 745,376 L 738,369 L 737,369 L 735,367 L 734,367 L 733,366 L 732,366 L 731,365 L 730,365 L 728,363 L 726,363 L 725,362 L 722,362 L 721,361 L 719,361 L 718,360 Z" fill="black" stroke="none" /><path d="M 1112,326 L 1111,327 L 1107,327 L 1106,328 L 1104,328 L 1103,329 L 1102,329 L 1097,334 L 1097,335 L 1096,336 L 1096,337 L 1095,338 L 1095,340 L 1094,341 L 1094,349 L 1095,350 L 1095,352 L 1096,353 L 1096,354 L 1098,356 L 1098,357 L 1101,360 L 1102,360 L 1103,361 L 1104,361 L 1105,362 L 1107,362 L 1108,363 L 1117,363 L 1118,362 L 1120,362 L 1121,361 L 1122,361 L 1124,359 L 1125,359 L 1126,358 L 1126,357 L 1128,355 L 1128,354 L 1129,353 L 1129,352 L 1130,351 L 1130,349 L 1131,348 L 1131,342 L 1130,341 L 1130,339 L 1129,338 L 1129,336 L 1126,333 L 1126,332 L 1125,331 L 1124,331 L 1122,329 L 1121,329 L 1120,328 L 1119,328 L 1118,327 L 1114,327 L 1113,326 Z" fill="black" stroke="none" /><path d="M 1285,298 L 1284,299 L 1282,299 L 1281,300 L 1280,300 L 1279,301 L 1278,301 L 1272,307 L 1272,308 L 1271,309 L 1271,311 L 1270,312 L 1270,323 L 1271,324 L 1271,325 L 1272,326 L 1272,327 L 1274,329 L 1274,330 L 1276,332 L 1277,332 L 1279,334 L 1280,334 L 1281,335 L 1283,335 L 1284,336 L 1293,336 L 1294,335 L 1296,335 L 1297,334 L 1298,334 L 1299,333 L 1300,333 L 1304,329 L 1304,328 L 1306,326 L 1306,324 L 1307,323 L 1307,319 L 1308,318 L 1308,316 L 1307,315 L 1307,311 L 1306,310 L 1306,309 L 1305,308 L 1305,307 L 1303,305 L 1303,304 L 1302,303 L 1301,303 L 1299,301 L 1298,301 L 1297,300 L 1296,300 L 1295,299 L 1293,299 L 1292,298 Z" fill="black" stroke="none" /><path d="M 763,298 L 762,299 L 760,299 L 759,300 L 758,300 L 757,301 L 756,301 L 754,303 L 753,303 L 752,304 L 752,305 L 750,307 L 750,308 L 749,309 L 749,310 L 748,311 L 748,313 L 747,314 L 747,320 L 748,321 L 748,324 L 749,325 L 749,326 L 750,327 L 750,328 L 756,334 L 757,334 L 758,335 L 760,335 L 761,336 L 765,336 L 766,337 L 767,337 L 768,336 L 772,336 L 773,335 L 775,335 L 777,333 L 778,333 L 782,329 L 782,328 L 784,326 L 784,324 L 785,323 L 785,320 L 786,319 L 786,316 L 785,315 L 785,311 L 784,310 L 784,309 L 783,308 L 783,307 L 777,301 L 776,301 L 775,300 L 774,300 L 773,299 L 771,299 L 770,298 Z" fill="black" stroke="none" /><path d="M 1045,284 L 1044,285 L 1043,285 L 1042,286 L 1041,286 L 1037,290 L 1037,291 L 1036,292 L 1036,294 L 1035,295 L 1035,444 L 1041,444 L 1042,445 L 1048,445 L 1049,446 L 1054,446 L 1055,447 L 1058,447 L 1059,448 L 1062,448 L 1063,449 L 1063,295 L 1062,294 L 1062,292 L 1061,291 L 1061,290 L 1057,286 L 1056,286 L 1055,285 L 1054,285 L 1053,284 Z" fill="black" stroke="none" /><path d="M 1180,227 L 1179,228 L 1174,228 L 1173,229 L 1171,229 L 1170,230 L 1168,230 L 1167,231 L 1166,231 L 1165,232 L 1164,232 L 1163,233 L 1162,233 L 1161,234 L 1160,234 L 1157,237 L 1156,237 L 1149,244 L 1149,245 L 1147,247 L 1147,248 L 1145,250 L 1145,251 L 1144,252 L 1144,253 L 1143,254 L 1143,255 L 1142,256 L 1142,258 L 1141,259 L 1141,262 L 1140,263 L 1140,267 L 1139,268 L 1139,279 L 1140,280 L 1140,283 L 1141,284 L 1141,287 L 1142,288 L 1142,290 L 1143,291 L 1143,292 L 1144,293 L 1144,295 L 1146,297 L 1146,298 L 1147,299 L 1147,300 L 1151,304 L 1151,305 L 1152,306 L 1153,306 L 1158,311 L 1159,311 L 1161,313 L 1162,313 L 1163,314 L 1164,314 L 1165,315 L 1166,315 L 1167,316 L 1168,316 L 1169,317 L 1169,367 L 1151,385 L 1151,386 L 1126,411 L 1126,412 L 1105,433 L 1105,434 L 1084,455 L 1084,457 L 1085,457 L 1086,458 L 1087,458 L 1088,459 L 1089,459 L 1090,460 L 1091,460 L 1093,462 L 1094,462 L 1095,463 L 1096,463 L 1098,465 L 1099,465 L 1102,468 L 1103,468 L 1106,471 L 1108,471 L 1199,380 L 1199,319 L 1201,317 L 1202,317 L 1203,316 L 1204,316 L 1205,315 L 1207,315 L 1209,313 L 1210,313 L 1211,312 L 1212,312 L 1216,308 L 1217,308 L 1220,305 L 1220,304 L 1224,300 L 1224,299 L 1225,298 L 1225,297 L 1227,295 L 1227,294 L 1228,293 L 1228,291 L 1229,290 L 1229,289 L 1230,288 L 1230,285 L 1231,284 L 1231,281 L 1232,280 L 1232,267 L 1231,266 L 1231,262 L 1230,261 L 1230,259 L 1229,258 L 1229,256 L 1228,255 L 1228,254 L 1227,253 L 1227,252 L 1226,251 L 1226,250 L 1225,249 L 1225,248 L 1222,245 L 1222,244 L 1215,237 L 1214,237 L 1211,234 L 1210,234 L 1209,233 L 1208,233 L 1207,232 L 1206,232 L 1205,231 L 1204,231 L 1203,230 L 1201,230 L 1200,229 L 1198,229 L 1197,228 L 1193,228 L 1192,227 Z" fill="black" stroke="none" /><path d="M 1057,194 L 1056,195 L 1051,195 L 1050,196 L 1047,196 L 1046,197 L 1045,197 L 1043,199 L 1042,199 L 1036,205 L 1036,206 L 1035,207 L 1035,208 L 1034,209 L 1034,210 L 1033,211 L 1033,213 L 1032,214 L 1032,224 L 1033,225 L 1033,227 L 1034,228 L 1034,230 L 1035,231 L 1035,232 L 1038,235 L 1038,236 L 1040,238 L 1041,238 L 1043,240 L 1044,240 L 1046,242 L 1048,242 L 1049,243 L 1051,243 L 1052,244 L 1061,244 L 1062,243 L 1065,243 L 1066,242 L 1067,242 L 1068,241 L 1069,241 L 1070,240 L 1071,240 L 1078,233 L 1078,232 L 1079,231 L 1079,230 L 1080,229 L 1080,227 L 1081,226 L 1081,213 L 1080,212 L 1080,210 L 1079,209 L 1079,208 L 1078,207 L 1078,206 L 1076,204 L 1076,203 L 1073,200 L 1072,200 L 1070,198 L 1069,198 L 1068,197 L 1067,197 L 1066,196 L 1064,196 L 1063,195 L 1058,195 Z" fill="black" stroke="none" /><path d="M 773,181 L 772,182 L 766,182 L 765,183 L 763,183 L 762,184 L 761,184 L 760,185 L 759,185 L 757,187 L 756,187 L 754,189 L 753,189 L 751,191 L 750,191 L 748,193 L 747,193 L 744,196 L 743,196 L 741,198 L 740,198 L 738,200 L 737,200 L 734,203 L 733,203 L 730,206 L 729,206 L 726,209 L 725,209 L 721,213 L 720,213 L 717,216 L 716,216 L 713,219 L 712,219 L 707,224 L 706,224 L 700,230 L 699,230 L 695,234 L 694,234 L 685,243 L 684,243 L 658,269 L 658,270 L 648,280 L 648,281 L 642,287 L 642,288 L 637,293 L 637,294 L 633,298 L 633,299 L 629,303 L 629,304 L 626,307 L 626,308 L 623,311 L 623,312 L 620,315 L 620,316 L 618,318 L 618,319 L 615,322 L 615,323 L 613,325 L 613,326 L 611,328 L 611,329 L 609,331 L 609,332 L 607,334 L 607,335 L 605,337 L 605,338 L 602,341 L 602,342 L 601,343 L 601,344 L 599,346 L 599,347 L 598,348 L 598,349 L 596,351 L 596,352 L 594,354 L 594,355 L 592,357 L 592,358 L 591,359 L 591,360 L 590,361 L 590,362 L 589,363 L 589,364 L 587,366 L 587,367 L 586,368 L 586,369 L 584,371 L 584,372 L 583,373 L 583,374 L 582,375 L 582,376 L 581,377 L 581,378 L 580,379 L 580,380 L 579,381 L 579,382 L 578,383 L 578,384 L 577,385 L 577,386 L 576,387 L 576,388 L 574,390 L 574,392 L 573,393 L 573,394 L 572,395 L 572,396 L 571,397 L 571,398 L 570,399 L 570,400 L 569,401 L 569,402 L 568,403 L 568,404 L 567,405 L 567,407 L 566,408 L 566,409 L 565,410 L 565,411 L 564,412 L 564,413 L 563,414 L 563,415 L 562,416 L 562,417 L 561,418 L 561,420 L 560,421 L 560,423 L 559,424 L 559,425 L 558,426 L 558,428 L 557,429 L 557,430 L 556,431 L 556,433 L 555,434 L 555,435 L 554,436 L 554,438 L 553,439 L 553,441 L 552,442 L 552,444 L 551,445 L 551,447 L 550,448 L 550,450 L 549,451 L 549,453 L 548,454 L 548,456 L 547,457 L 547,459 L 546,460 L 546,462 L 545,463 L 545,466 L 544,467 L 544,469 L 543,470 L 543,472 L 542,473 L 542,476 L 541,477 L 541,480 L 540,481 L 540,483 L 539,484 L 539,486 L 538,487 L 538,490 L 537,491 L 537,493 L 536,494 L 536,497 L 535,498 L 535,509 L 536,510 L 536,512 L 537,513 L 537,514 L 538,515 L 538,516 L 539,517 L 539,518 L 545,524 L 546,524 L 547,525 L 548,525 L 549,526 L 550,526 L 551,527 L 554,527 L 555,528 L 564,528 L 565,527 L 567,527 L 568,526 L 570,526 L 571,525 L 572,525 L 575,522 L 576,522 L 578,520 L 578,519 L 581,516 L 581,515 L 582,514 L 582,512 L 583,511 L 583,509 L 584,508 L 584,506 L 585,505 L 585,502 L 586,501 L 586,499 L 587,498 L 587,496 L 588,495 L 588,492 L 589,491 L 589,489 L 590,488 L 590,486 L 591,485 L 591,482 L 592,481 L 592,479 L 593,478 L 593,476 L 594,475 L 594,472 L 595,471 L 595,469 L 596,468 L 596,467 L 597,466 L 597,464 L 598,463 L 598,461 L 599,460 L 599,458 L 600,457 L 600,455 L 601,454 L 601,452 L 602,451 L 602,450 L 603,449 L 603,448 L 604,447 L 604,445 L 605,444 L 605,443 L 606,442 L 606,440 L 607,439 L 607,438 L 608,437 L 608,436 L 609,435 L 609,433 L 610,432 L 610,431 L 611,430 L 611,429 L 612,428 L 612,427 L 613,426 L 613,424 L 614,423 L 614,422 L 616,420 L 616,418 L 617,417 L 617,416 L 618,415 L 618,414 L 619,413 L 619,412 L 620,411 L 620,410 L 621,409 L 621,408 L 623,406 L 623,405 L 624,404 L 624,403 L 625,402 L 625,401 L 626,400 L 626,399 L 627,398 L 627,397 L 628,396 L 628,395 L 629,394 L 629,393 L 630,392 L 630,391 L 632,389 L 632,388 L 633,387 L 633,386 L 635,384 L 635,383 L 636,382 L 636,381 L 637,380 L 637,379 L 639,377 L 639,376 L 641,374 L 641,373 L 642,372 L 642,371 L 644,369 L 644,368 L 646,366 L 646,365 L 648,363 L 648,362 L 650,360 L 650,359 L 652,357 L 652,356 L 654,354 L 654,353 L 656,351 L 656,350 L 658,348 L 658,347 L 662,343 L 662,342 L 665,339 L 665,338 L 667,336 L 667,335 L 671,331 L 671,330 L 675,326 L 675,325 L 680,320 L 680,319 L 686,313 L 686,312 L 699,299 L 699,298 L 710,287 L 711,287 L 727,271 L 728,271 L 737,262 L 738,262 L 742,258 L 743,258 L 747,254 L 748,254 L 753,249 L 754,249 L 757,246 L 758,246 L 761,243 L 762,243 L 765,240 L 766,240 L 769,237 L 770,237 L 773,234 L 774,234 L 776,232 L 777,232 L 780,229 L 781,229 L 783,227 L 784,227 L 787,224 L 788,224 L 791,221 L 791,220 L 793,218 L 793,217 L 794,216 L 794,215 L 795,214 L 795,211 L 796,210 L 796,201 L 795,200 L 795,198 L 794,197 L 794,195 L 792,193 L 792,192 L 789,189 L 789,188 L 788,187 L 787,187 L 785,185 L 784,185 L 783,184 L 782,184 L 781,183 L 779,183 L 778,182 L 774,182 Z" fill="black" stroke="none" /><path d="M 936,124 L 935,125 L 933,125 L 932,126 L 931,126 L 927,130 L 927,131 L 926,132 L 926,440 L 928,442 L 928,443 L 953,468 L 955,468 L 958,465 L 959,465 L 961,463 L 962,463 L 963,462 L 964,462 L 966,460 L 967,460 L 968,459 L 969,459 L 970,458 L 971,458 L 972,457 L 973,457 L 974,456 L 971,453 L 971,452 L 961,442 L 961,441 L 952,432 L 952,431 L 950,429 L 950,136 L 949,135 L 949,131 L 947,129 L 947,128 L 946,127 L 945,127 L 943,125 L 941,125 L 940,124 Z" fill="black" stroke="none" /><path d="M 846,118 L 845,119 L 843,119 L 842,120 L 840,120 L 839,121 L 837,121 L 835,123 L 834,123 L 833,124 L 832,124 L 827,129 L 826,129 L 825,130 L 825,131 L 821,135 L 821,136 L 819,138 L 819,139 L 818,140 L 818,142 L 817,143 L 817,144 L 816,145 L 816,148 L 815,149 L 815,157 L 814,158 L 815,159 L 815,167 L 816,168 L 816,170 L 817,171 L 817,173 L 818,174 L 818,175 L 819,176 L 819,177 L 820,178 L 820,179 L 823,182 L 823,183 L 830,190 L 831,190 L 833,192 L 834,192 L 835,193 L 836,193 L 837,194 L 838,194 L 839,195 L 841,195 L 842,196 L 844,196 L 845,197 L 848,197 L 849,198 L 850,198 L 851,199 L 851,228 L 849,230 L 848,230 L 847,231 L 845,231 L 844,232 L 843,232 L 841,234 L 840,234 L 839,235 L 838,235 L 834,239 L 833,239 L 831,241 L 831,242 L 827,246 L 827,247 L 825,249 L 825,250 L 824,251 L 824,252 L 823,253 L 823,254 L 822,255 L 822,256 L 821,257 L 821,260 L 820,261 L 820,263 L 819,264 L 819,281 L 820,282 L 820,285 L 821,286 L 821,288 L 822,289 L 822,291 L 823,292 L 823,293 L 825,295 L 825,296 L 826,297 L 826,298 L 828,300 L 828,301 L 835,308 L 836,308 L 838,310 L 839,310 L 841,312 L 842,312 L 843,313 L 844,313 L 845,314 L 846,314 L 847,315 L 849,315 L 850,316 L 853,316 L 854,317 L 858,317 L 859,318 L 861,318 L 862,319 L 862,438 L 914,490 L 915,490 L 924,499 L 925,498 L 925,497 L 928,494 L 928,493 L 932,489 L 932,488 L 942,478 L 928,464 L 928,463 L 895,430 L 895,429 L 894,429 L 892,427 L 892,426 L 889,423 L 889,310 L 890,309 L 891,309 L 901,299 L 901,298 L 902,297 L 902,296 L 904,294 L 904,293 L 905,292 L 905,290 L 906,289 L 906,288 L 907,287 L 907,285 L 908,284 L 908,279 L 909,278 L 909,267 L 908,266 L 908,262 L 907,261 L 907,258 L 906,257 L 906,256 L 905,255 L 905,253 L 904,252 L 904,251 L 902,249 L 902,248 L 900,246 L 900,245 L 891,236 L 890,236 L 888,234 L 887,234 L 886,233 L 885,233 L 884,232 L 883,232 L 882,231 L 880,231 L 879,230 L 878,230 L 876,228 L 876,192 L 878,190 L 879,190 L 887,182 L 887,181 L 889,179 L 889,178 L 890,177 L 890,176 L 891,175 L 891,174 L 892,173 L 892,172 L 893,171 L 893,168 L 894,167 L 894,164 L 895,163 L 895,153 L 894,152 L 894,148 L 893,147 L 893,145 L 892,144 L 892,142 L 891,141 L 891,140 L 890,139 L 890,138 L 889,137 L 889,136 L 885,132 L 885,131 L 881,127 L 880,127 L 877,124 L 876,124 L 874,122 L 873,122 L 872,121 L 870,121 L 869,120 L 868,120 L 867,119 L 864,119 L 863,118 Z" fill="black" stroke="none" /><path d="M 1089,111 L 1088,112 L 1084,112 L 1083,113 L 1082,113 L 1081,114 L 1079,114 L 1077,116 L 1076,116 L 1071,121 L 1071,122 L 1069,124 L 1069,126 L 1068,127 L 1068,128 L 1067,129 L 1067,135 L 1066,136 L 1067,137 L 1067,142 L 1068,143 L 1068,145 L 1069,146 L 1069,147 L 1070,148 L 1070,149 L 1078,157 L 1079,157 L 1080,158 L 1082,158 L 1083,159 L 1085,159 L 1086,160 L 1090,160 L 1091,161 L 1097,161 L 1098,162 L 1102,162 L 1103,163 L 1107,163 L 1108,164 L 1113,164 L 1114,165 L 1118,165 L 1119,166 L 1123,166 L 1124,167 L 1128,167 L 1129,168 L 1132,168 L 1133,169 L 1135,169 L 1136,170 L 1140,170 L 1141,171 L 1144,171 L 1145,172 L 1148,172 L 1149,173 L 1151,173 L 1152,174 L 1155,174 L 1156,175 L 1158,175 L 1159,176 L 1161,176 L 1162,177 L 1165,177 L 1166,178 L 1168,178 L 1169,179 L 1171,179 L 1172,180 L 1174,180 L 1175,181 L 1177,181 L 1178,182 L 1180,182 L 1181,183 L 1183,183 L 1184,184 L 1185,184 L 1186,185 L 1188,185 L 1189,186 L 1191,186 L 1192,187 L 1193,187 L 1194,188 L 1196,188 L 1197,189 L 1198,189 L 1199,190 L 1201,190 L 1202,191 L 1203,191 L 1204,192 L 1205,192 L 1206,193 L 1208,193 L 1209,194 L 1210,194 L 1211,195 L 1212,195 L 1213,196 L 1215,196 L 1217,198 L 1219,198 L 1220,199 L 1221,199 L 1222,200 L 1223,200 L 1224,201 L 1225,201 L 1226,202 L 1227,202 L 1228,203 L 1229,203 L 1230,204 L 1231,204 L 1232,205 L 1233,205 L 1234,206 L 1235,206 L 1237,208 L 1238,208 L 1239,209 L 1240,209 L 1241,210 L 1242,210 L 1243,211 L 1244,211 L 1245,212 L 1246,212 L 1248,214 L 1249,214 L 1250,215 L 1251,215 L 1252,216 L 1253,216 L 1255,218 L 1256,218 L 1257,219 L 1258,219 L 1260,221 L 1261,221 L 1263,223 L 1264,223 L 1265,224 L 1266,224 L 1268,226 L 1269,226 L 1270,227 L 1271,227 L 1274,230 L 1275,230 L 1276,231 L 1277,231 L 1279,233 L 1280,233 L 1283,236 L 1284,236 L 1286,238 L 1287,238 L 1289,240 L 1290,240 L 1292,242 L 1293,242 L 1296,245 L 1297,245 L 1300,248 L 1301,248 L 1304,251 L 1305,251 L 1309,255 L 1310,255 L 1314,259 L 1315,259 L 1320,264 L 1321,264 L 1328,271 L 1329,271 L 1338,280 L 1339,280 L 1371,312 L 1371,313 L 1380,322 L 1380,323 L 1386,329 L 1386,330 L 1391,335 L 1391,336 L 1395,340 L 1395,341 L 1398,344 L 1398,345 L 1401,348 L 1401,349 L 1403,351 L 1403,352 L 1402,353 L 1401,353 L 1400,352 L 1399,352 L 1398,351 L 1396,351 L 1395,350 L 1390,350 L 1389,349 L 1383,349 L 1382,350 L 1377,350 L 1376,351 L 1374,351 L 1373,352 L 1372,352 L 1371,353 L 1370,353 L 1369,354 L 1368,354 L 1367,355 L 1366,355 L 1358,363 L 1358,364 L 1357,365 L 1357,366 L 1355,368 L 1355,369 L 1354,370 L 1354,372 L 1353,373 L 1353,376 L 1352,377 L 1352,383 L 1351,384 L 1229,384 L 1222,391 L 1221,391 L 1195,417 L 1194,417 L 1169,442 L 1168,442 L 1143,467 L 1142,467 L 1142,468 L 1141,469 L 1140,469 L 1123,486 L 1123,487 L 1128,492 L 1128,493 L 1132,497 L 1132,498 L 1133,499 L 1133,500 L 1135,502 L 1135,503 L 1137,505 L 1137,506 L 1138,507 L 1139,507 L 1149,497 L 1150,497 L 1173,474 L 1174,474 L 1196,452 L 1197,452 L 1197,451 L 1198,450 L 1199,450 L 1221,428 L 1222,428 L 1241,409 L 1364,409 L 1366,411 L 1367,411 L 1368,412 L 1369,412 L 1370,413 L 1371,413 L 1372,414 L 1373,414 L 1374,415 L 1376,415 L 1377,416 L 1381,416 L 1382,417 L 1389,417 L 1390,416 L 1394,416 L 1395,415 L 1398,415 L 1399,414 L 1400,414 L 1401,413 L 1402,413 L 1403,412 L 1404,412 L 1407,409 L 1408,409 L 1411,406 L 1411,405 L 1414,402 L 1414,401 L 1415,400 L 1415,399 L 1417,397 L 1417,395 L 1418,394 L 1418,392 L 1419,391 L 1419,385 L 1420,384 L 1420,381 L 1421,380 L 1422,381 L 1422,382 L 1423,383 L 1423,384 L 1424,385 L 1424,386 L 1425,387 L 1425,388 L 1426,389 L 1426,390 L 1427,391 L 1427,392 L 1428,393 L 1428,394 L 1430,396 L 1430,397 L 1431,398 L 1431,399 L 1432,400 L 1432,401 L 1433,402 L 1433,403 L 1434,404 L 1434,406 L 1435,407 L 1435,408 L 1436,409 L 1436,410 L 1437,411 L 1437,412 L 1438,413 L 1438,414 L 1439,415 L 1439,416 L 1440,417 L 1440,419 L 1441,420 L 1441,421 L 1442,422 L 1442,423 L 1443,424 L 1443,425 L 1444,426 L 1444,428 L 1445,429 L 1445,430 L 1446,431 L 1446,432 L 1447,433 L 1447,435 L 1448,436 L 1448,437 L 1449,438 L 1449,440 L 1450,441 L 1450,442 L 1451,443 L 1451,445 L 1452,446 L 1452,448 L 1453,449 L 1453,451 L 1454,452 L 1454,454 L 1455,455 L 1455,456 L 1456,457 L 1456,460 L 1457,461 L 1457,462 L 1458,463 L 1458,465 L 1459,466 L 1459,469 L 1460,470 L 1460,472 L 1461,473 L 1461,476 L 1462,477 L 1462,479 L 1463,480 L 1463,483 L 1464,484 L 1464,486 L 1465,487 L 1465,491 L 1466,492 L 1466,495 L 1467,496 L 1467,499 L 1468,500 L 1468,504 L 1469,505 L 1469,509 L 1470,510 L 1470,514 L 1471,515 L 1471,520 L 1472,521 L 1472,528 L 1473,529 L 1473,534 L 1474,535 L 1474,543 L 1475,544 L 1475,555 L 1476,556 L 1476,567 L 1475,568 L 1155,568 L 1155,584 L 1154,585 L 1154,591 L 1153,592 L 1153,597 L 1328,597 L 1329,598 L 1475,598 L 1476,599 L 1476,612 L 1475,613 L 1475,624 L 1474,625 L 1474,635 L 1473,636 L 1473,641 L 1472,642 L 1472,649 L 1471,650 L 1471,657 L 1470,658 L 1470,663 L 1469,664 L 1469,668 L 1468,669 L 1468,674 L 1467,675 L 1467,679 L 1466,680 L 1466,685 L 1465,686 L 1465,689 L 1464,690 L 1464,693 L 1463,694 L 1463,696 L 1462,697 L 1462,700 L 1461,701 L 1461,702 L 1460,703 L 1460,705 L 1459,706 L 1459,707 L 1458,708 L 1458,710 L 1456,712 L 1456,714 L 1455,715 L 1455,716 L 1453,718 L 1453,719 L 1452,720 L 1452,721 L 1450,723 L 1450,724 L 1448,726 L 1448,727 L 1444,731 L 1444,732 L 1430,746 L 1429,746 L 1426,749 L 1425,749 L 1422,752 L 1421,752 L 1420,753 L 1419,753 L 1417,755 L 1416,755 L 1415,756 L 1414,756 L 1413,757 L 1412,757 L 1411,758 L 1410,758 L 1409,759 L 1408,759 L 1407,760 L 1405,760 L 1404,761 L 1403,761 L 1402,762 L 1399,762 L 1398,763 L 1396,763 L 1395,764 L 1392,764 L 1391,765 L 1386,765 L 1385,766 L 1380,766 L 1378,768 L 1378,770 L 1377,771 L 1377,772 L 1376,773 L 1376,774 L 1375,775 L 1375,776 L 1374,777 L 1374,778 L 1372,780 L 1372,781 L 1371,782 L 1371,783 L 1368,786 L 1368,787 L 1356,799 L 1355,799 L 1352,802 L 1351,802 L 1349,804 L 1348,804 L 1347,805 L 1346,805 L 1345,806 L 1344,806 L 1342,808 L 1341,808 L 1340,809 L 1338,809 L 1337,810 L 1335,810 L 1334,811 L 1333,811 L 1332,812 L 1329,812 L 1328,813 L 1326,813 L 1325,814 L 1325,815 L 1326,816 L 1326,817 L 1327,818 L 1327,820 L 1328,821 L 1328,822 L 1329,823 L 1329,825 L 1330,826 L 1330,830 L 1331,831 L 1331,834 L 1332,835 L 1332,851 L 1331,852 L 1331,855 L 1330,856 L 1330,858 L 1329,859 L 1329,861 L 1328,862 L 1328,863 L 1327,864 L 1327,865 L 1326,866 L 1326,867 L 1324,869 L 1324,870 L 1321,873 L 1321,874 L 1258,937 L 1258,1061 L 1257,1062 L 1257,1123 L 1256,1124 L 1256,1130 L 1255,1131 L 1255,1135 L 1254,1136 L 1254,1138 L 1253,1139 L 1253,1141 L 1252,1142 L 1252,1143 L 1251,1144 L 1251,1145 L 1250,1146 L 1250,1147 L 1249,1148 L 1249,1149 L 1247,1151 L 1247,1152 L 1245,1154 L 1245,1155 L 1235,1165 L 1234,1165 L 1231,1168 L 1230,1168 L 1228,1170 L 1227,1170 L 1225,1172 L 1224,1172 L 1223,1173 L 1221,1173 L 1220,1174 L 1219,1174 L 1218,1175 L 1217,1175 L 1216,1176 L 1213,1176 L 1212,1177 L 1209,1177 L 1208,1178 L 1202,1178 L 1201,1179 L 1129,1179 L 1128,1180 L 1118,1180 L 1117,1181 L 1116,1181 L 1113,1184 L 1113,1185 L 1112,1186 L 1112,1188 L 1111,1189 L 1111,1351 L 1112,1352 L 1112,1354 L 1113,1355 L 1113,1356 L 1114,1357 L 1115,1357 L 1116,1358 L 1117,1358 L 1118,1359 L 1151,1359 L 1152,1358 L 1154,1358 L 1157,1355 L 1157,1354 L 1158,1353 L 1158,1351 L 1159,1350 L 1159,1308 L 1160,1307 L 1160,1300 L 1161,1299 L 1161,1298 L 1162,1297 L 1162,1295 L 1163,1294 L 1163,1293 L 1166,1290 L 1166,1289 L 1169,1286 L 1170,1286 L 1173,1283 L 1174,1283 L 1175,1282 L 1176,1282 L 1177,1281 L 1178,1281 L 1179,1280 L 1180,1280 L 1181,1279 L 1184,1279 L 1185,1278 L 1197,1278 L 1198,1277 L 1416,1277 L 1417,1276 L 1439,1276 L 1440,1275 L 1443,1275 L 1444,1274 L 1446,1274 L 1447,1273 L 1450,1273 L 1451,1272 L 1452,1272 L 1453,1271 L 1454,1271 L 1455,1270 L 1457,1270 L 1458,1269 L 1459,1269 L 1461,1267 L 1462,1267 L 1464,1265 L 1465,1265 L 1468,1262 L 1469,1262 L 1476,1255 L 1476,1254 L 1480,1250 L 1480,1249 L 1481,1248 L 1481,1247 L 1483,1245 L 1483,1243 L 1484,1242 L 1484,1241 L 1485,1240 L 1485,1239 L 1486,1238 L 1486,1235 L 1487,1234 L 1487,1230 L 1488,1229 L 1488,1206 L 1487,1205 L 1487,1200 L 1486,1199 L 1486,1194 L 1485,1193 L 1485,1189 L 1484,1188 L 1484,1184 L 1483,1183 L 1483,1177 L 1482,1176 L 1482,1172 L 1481,1171 L 1481,1167 L 1480,1166 L 1480,1158 L 1479,1157 L 1479,1140 L 1480,1139 L 1480,1135 L 1481,1134 L 1481,1133 L 1482,1132 L 1482,1130 L 1483,1129 L 1483,1128 L 1485,1126 L 1485,1125 L 1487,1123 L 1487,1122 L 1494,1115 L 1495,1115 L 1499,1111 L 1500,1111 L 1503,1108 L 1504,1108 L 1507,1105 L 1508,1105 L 1512,1101 L 1513,1101 L 1515,1099 L 1515,1098 L 1518,1095 L 1518,1094 L 1519,1093 L 1519,1092 L 1520,1091 L 1520,1089 L 1521,1088 L 1521,1086 L 1520,1085 L 1520,1084 L 1519,1083 L 1519,1082 L 1517,1080 L 1517,1079 L 1504,1066 L 1503,1066 L 1496,1059 L 1496,1058 L 1497,1057 L 1499,1057 L 1500,1056 L 1502,1056 L 1503,1055 L 1504,1055 L 1505,1054 L 1507,1054 L 1508,1053 L 1509,1053 L 1510,1052 L 1511,1052 L 1512,1051 L 1513,1051 L 1514,1050 L 1515,1050 L 1516,1049 L 1517,1049 L 1518,1048 L 1519,1048 L 1521,1046 L 1522,1046 L 1529,1039 L 1529,1038 L 1530,1037 L 1530,1036 L 1531,1035 L 1531,1034 L 1532,1033 L 1532,1032 L 1533,1031 L 1533,1019 L 1532,1018 L 1532,1015 L 1531,1014 L 1531,1010 L 1530,1009 L 1530,1004 L 1529,1003 L 1529,999 L 1528,998 L 1528,939 L 1529,938 L 1531,938 L 1532,937 L 1535,937 L 1536,936 L 1539,936 L 1540,935 L 1542,935 L 1543,934 L 1546,934 L 1547,933 L 1550,933 L 1551,932 L 1553,932 L 1554,931 L 1557,931 L 1558,930 L 1561,930 L 1562,929 L 1565,929 L 1566,928 L 1568,928 L 1569,927 L 1572,927 L 1573,926 L 1575,926 L 1576,925 L 1578,925 L 1579,924 L 1583,924 L 1584,923 L 1586,923 L 1587,922 L 1589,922 L 1590,921 L 1593,921 L 1594,920 L 1596,920 L 1597,919 L 1599,919 L 1600,918 L 1603,918 L 1604,917 L 1606,917 L 1607,916 L 1609,916 L 1610,915 L 1612,915 L 1613,914 L 1615,914 L 1616,913 L 1618,913 L 1619,912 L 1620,912 L 1621,911 L 1622,911 L 1623,910 L 1624,910 L 1625,909 L 1626,909 L 1632,903 L 1632,902 L 1633,901 L 1633,900 L 1634,899 L 1634,895 L 1635,894 L 1635,893 L 1634,892 L 1634,886 L 1633,885 L 1633,883 L 1632,882 L 1632,881 L 1631,880 L 1631,879 L 1630,878 L 1630,877 L 1629,876 L 1629,875 L 1628,874 L 1628,873 L 1626,871 L 1626,870 L 1624,868 L 1624,867 L 1621,864 L 1621,863 L 1618,860 L 1618,859 L 1616,857 L 1616,856 L 1614,854 L 1614,853 L 1611,850 L 1611,849 L 1609,847 L 1609,846 L 1606,843 L 1606,842 L 1603,839 L 1603,838 L 1601,836 L 1601,835 L 1599,833 L 1599,832 L 1596,829 L 1596,828 L 1594,826 L 1594,825 L 1591,822 L 1591,821 L 1589,819 L 1589,818 L 1586,815 L 1586,814 L 1584,812 L 1584,811 L 1581,808 L 1581,807 L 1579,805 L 1579,804 L 1577,802 L 1577,801 L 1574,798 L 1574,797 L 1571,794 L 1571,793 L 1569,791 L 1569,790 L 1567,788 L 1567,787 L 1564,784 L 1564,783 L 1562,781 L 1562,780 L 1559,777 L 1559,776 L 1556,773 L 1556,772 L 1554,770 L 1554,769 L 1552,767 L 1552,766 L 1549,763 L 1549,762 L 1547,760 L 1547,759 L 1545,757 L 1545,756 L 1543,754 L 1543,753 L 1540,750 L 1540,749 L 1538,747 L 1538,746 L 1536,744 L 1536,743 L 1534,741 L 1534,740 L 1532,738 L 1532,737 L 1530,735 L 1530,734 L 1529,733 L 1529,732 L 1527,730 L 1527,729 L 1526,728 L 1526,727 L 1524,725 L 1524,724 L 1523,723 L 1523,722 L 1522,721 L 1522,720 L 1521,719 L 1521,717 L 1520,716 L 1520,714 L 1519,713 L 1519,711 L 1518,710 L 1518,706 L 1517,705 L 1517,676 L 1518,675 L 1518,670 L 1519,669 L 1519,664 L 1520,663 L 1520,658 L 1521,657 L 1521,652 L 1522,651 L 1522,646 L 1523,645 L 1523,640 L 1524,639 L 1524,632 L 1525,631 L 1525,623 L 1526,622 L 1526,615 L 1527,614 L 1527,588 L 1528,587 L 1528,578 L 1527,577 L 1527,547 L 1526,546 L 1526,539 L 1525,538 L 1525,532 L 1524,531 L 1524,523 L 1523,522 L 1523,517 L 1522,516 L 1522,512 L 1521,511 L 1521,505 L 1520,504 L 1520,500 L 1519,499 L 1519,496 L 1518,495 L 1518,490 L 1517,489 L 1517,486 L 1516,485 L 1516,482 L 1515,481 L 1515,477 L 1514,476 L 1514,473 L 1513,472 L 1513,470 L 1512,469 L 1512,466 L 1511,465 L 1511,462 L 1510,461 L 1510,459 L 1509,458 L 1509,456 L 1508,455 L 1508,453 L 1507,452 L 1507,450 L 1506,449 L 1506,447 L 1505,446 L 1505,443 L 1504,442 L 1504,441 L 1503,440 L 1503,438 L 1502,437 L 1502,435 L 1501,434 L 1501,432 L 1500,431 L 1500,430 L 1499,429 L 1499,427 L 1498,426 L 1498,424 L 1497,423 L 1497,422 L 1496,421 L 1496,419 L 1495,418 L 1495,417 L 1494,416 L 1494,415 L 1493,414 L 1493,412 L 1492,411 L 1492,410 L 1491,409 L 1491,408 L 1490,407 L 1490,405 L 1489,404 L 1489,403 L 1488,402 L 1488,401 L 1487,400 L 1487,398 L 1486,397 L 1486,396 L 1485,395 L 1485,394 L 1484,393 L 1484,392 L 1483,391 L 1483,390 L 1482,389 L 1482,388 L 1481,387 L 1481,386 L 1480,385 L 1480,384 L 1479,383 L 1479,382 L 1478,381 L 1478,380 L 1477,379 L 1477,378 L 1476,377 L 1476,376 L 1475,375 L 1475,374 L 1474,373 L 1474,372 L 1473,371 L 1473,370 L 1471,368 L 1471,367 L 1470,366 L 1470,365 L 1469,364 L 1469,363 L 1467,361 L 1467,360 L 1466,359 L 1466,358 L 1465,357 L 1465,356 L 1463,354 L 1463,353 L 1462,352 L 1462,351 L 1460,349 L 1460,348 L 1458,346 L 1458,345 L 1457,344 L 1457,343 L 1455,341 L 1455,340 L 1454,339 L 1454,338 L 1452,336 L 1452,335 L 1450,333 L 1450,332 L 1448,330 L 1448,329 L 1446,327 L 1446,326 L 1443,323 L 1443,322 L 1442,321 L 1442,320 L 1439,317 L 1439,316 L 1436,313 L 1436,312 L 1433,309 L 1433,308 L 1430,305 L 1430,304 L 1426,300 L 1426,299 L 1422,295 L 1422,294 L 1417,289 L 1417,288 L 1411,282 L 1411,281 L 1402,272 L 1402,271 L 1369,238 L 1368,238 L 1361,231 L 1360,231 L 1354,225 L 1353,225 L 1350,222 L 1349,222 L 1345,218 L 1344,218 L 1341,215 L 1340,215 L 1336,211 L 1335,211 L 1332,208 L 1331,208 L 1328,205 L 1327,205 L 1325,203 L 1324,203 L 1321,200 L 1320,200 L 1318,198 L 1317,198 L 1314,195 L 1313,195 L 1311,193 L 1310,193 L 1308,191 L 1307,191 L 1305,189 L 1304,189 L 1302,187 L 1301,187 L 1299,185 L 1298,185 L 1296,183 L 1295,183 L 1294,182 L 1293,182 L 1291,180 L 1290,180 L 1289,179 L 1288,179 L 1286,177 L 1285,177 L 1284,176 L 1283,176 L 1281,174 L 1280,174 L 1279,173 L 1278,173 L 1277,172 L 1276,172 L 1275,171 L 1274,171 L 1272,169 L 1271,169 L 1270,168 L 1269,168 L 1268,167 L 1267,167 L 1265,165 L 1264,165 L 1263,164 L 1262,164 L 1261,163 L 1260,163 L 1259,162 L 1258,162 L 1257,161 L 1256,161 L 1255,160 L 1254,160 L 1253,159 L 1252,159 L 1251,158 L 1250,158 L 1249,157 L 1248,157 L 1247,156 L 1246,156 L 1245,155 L 1244,155 L 1243,154 L 1242,154 L 1241,153 L 1239,153 L 1238,152 L 1237,152 L 1236,151 L 1235,151 L 1234,150 L 1233,150 L 1232,149 L 1230,149 L 1229,148 L 1228,148 L 1227,147 L 1226,147 L 1225,146 L 1223,146 L 1222,145 L 1221,145 L 1220,144 L 1219,144 L 1218,143 L 1216,143 L 1215,142 L 1214,142 L 1213,141 L 1211,141 L 1210,140 L 1208,140 L 1207,139 L 1205,139 L 1204,138 L 1203,138 L 1202,137 L 1200,137 L 1199,136 L 1197,136 L 1196,135 L 1195,135 L 1194,134 L 1191,134 L 1190,133 L 1188,133 L 1187,132 L 1185,132 L 1184,131 L 1182,131 L 1181,130 L 1178,130 L 1177,129 L 1175,129 L 1174,128 L 1172,128 L 1171,127 L 1168,127 L 1167,126 L 1164,126 L 1163,125 L 1161,125 L 1160,124 L 1157,124 L 1156,123 L 1153,123 L 1152,122 L 1149,122 L 1148,121 L 1144,121 L 1143,120 L 1140,120 L 1139,119 L 1137,119 L 1136,118 L 1131,118 L 1130,117 L 1126,117 L 1125,116 L 1121,116 L 1120,115 L 1115,115 L 1114,114 L 1108,114 L 1107,113 L 1102,113 L 1101,112 L 1092,112 L 1091,111 Z" fill="black" stroke="none" /><path d="M 1000,94 L 999,95 L 996,95 L 995,96 L 993,96 L 992,97 L 991,97 L 990,98 L 989,98 L 987,100 L 986,100 L 978,108 L 978,109 L 977,110 L 977,111 L 976,112 L 976,113 L 975,114 L 975,116 L 974,117 L 974,119 L 973,120 L 973,125 L 972,126 L 972,131 L 973,132 L 973,136 L 974,137 L 974,139 L 975,140 L 975,141 L 976,142 L 976,143 L 977,144 L 977,145 L 978,146 L 978,147 L 985,154 L 985,452 L 986,451 L 987,451 L 988,450 L 991,450 L 992,449 L 994,449 L 995,448 L 997,448 L 998,447 L 1002,447 L 1003,446 L 1008,446 L 1009,445 L 1012,445 L 1012,162 L 1014,160 L 1017,160 L 1018,159 L 1019,159 L 1020,158 L 1021,158 L 1022,157 L 1023,157 L 1024,156 L 1025,156 L 1027,154 L 1028,154 L 1032,150 L 1032,149 L 1035,146 L 1035,145 L 1036,144 L 1036,143 L 1037,142 L 1037,141 L 1038,140 L 1038,138 L 1039,137 L 1039,134 L 1040,133 L 1040,121 L 1039,120 L 1039,118 L 1038,117 L 1038,115 L 1037,114 L 1037,113 L 1036,112 L 1036,111 L 1035,110 L 1035,109 L 1031,105 L 1031,104 L 1029,102 L 1028,102 L 1025,99 L 1024,99 L 1023,98 L 1022,98 L 1021,97 L 1020,97 L 1019,96 L 1017,96 L 1016,95 L 1014,95 L 1013,94 Z" fill="black" stroke="none" /></svg>