<?xml version="1.0" encoding="UTF-8"?>
<svg version="1.1" viewBox="0 0 2048 2048" width="512" height="512" xmlns="http://www.w3.org/2000/svg">
<path transform="translate(465)" d="m0 0h1126l4 2 43 7 31 7 35 11 24 9 23 10 19 9 22 12 21 13 12 8 18 13 14 11 13 11 11 9 13 13 6 5 7 8 9 9 9 11 12 14 10 13 12 17 10 15 12 20 12 22 13 27 13 33 10 31 8 32 6 32 3 21h2v1135l-2 1-5 34-6 30-8 30-11 32-12 29-16 33-14 24-14 22-11 15-13 17-12 14-10 11-7 8-22 22-8 7-15 13-17 13-15 11-18 12-20 12-18 10-26 13-29 12-36 12-29 8-36 7-38 6h-1112l-25-4-35-6-30-7-29-9-20-7-24-10-18-8-19-10-26-15-21-14-14-10-13-10-11-9-15-13-7-7-8-7-11-11-7-8-7-7-7-8-13-16-12-16-14-20-12-20-12-21-13-26-10-24-10-27-10-34-7-32-7-44-1-4v-1122l2-8 6-39 8-35 10-33 10-27 11-25 15-30 13-22 11-17 12-17 10-13 11-14 10-11 7-8 15-16 15-14 10-9 11-9 16-13 17-12 15-10 18-11 23-13 27-13 27-11 29-10 25-7 36-8 31-5zm232 170-203 1-31 3-23 4-27 7-26 9-23 10-22 12-18 11-18 13-11 9-14 12-21 21-7 8-13 16-7 10-12 18-12 21-11 23-9 24-7 23-6 26-4 30-1 19v1049l2 27 5 30 6 25 10 29 11 25 11 21 12 19 10 14 11 14 10 11 7 8 16 16 11 9 8 7 18 13 17 11 22 12 23 11 27 10 27 7 26 5 26 3 15 1 138 1h702l200-1 30-2 27-4 26-6 26-8 29-12 20-10 23-14 14-10 13-10 14-12 12-11 12-12 9-11 11-13 7-10 10-15 12-21 8-16 9-21 11-33 6-26 4-27 1-13 1-33v-1008l-1-31-3-28-5-26-7-25-7-20-9-21-8-16-10-18-14-21-13-17-12-14-26-26-11-9-17-13-23-15-18-10-25-12-24-9-28-8-25-5-25-3-16-1-199-1z"/>
<path transform="translate(595,511)" d="m0 0h857l18 2 15 5 16 9 13 12 9 11 8 16 4 13 1 5v26l-4 16-8 16-7 10-7 8-10 8-15 8-11 4-9 2-9 1h-866l-17-3-15-6-11-7-10-9-7-7-10-15-5-12-3-13-1-9v-10l3-17 4-12 9-16 9-10 8-8 14-9 16-6 10-2z"/>
<path transform="translate(589,938)" d="m0 0h869l13 2 15 5 14 8 10 9 5 5 9 11 8 17 4 16v26l-4 15-5 12-7 11-11 12-11 9-16 8-14 4-16 2h-856l-17-2-13-4-16-8-11-9-8-8-7-10-8-16-4-15-1-9v-9l2-15 5-15 6-12 8-10 8-9 14-10 15-7 12-3z"/>
<path transform="translate(585,1365)" d="m0 0h877l14 3 16 7 11 7 13 12 9 13 6 12 4 13 1 6v25l-4 16-8 17-9 12-8 8-13 9-16 7-12 3-8 1h-870l-16-3-15-6-12-8-12-11-9-12-8-16-4-15-1-9v-11l3-17 5-14 7-12 7-9 10-10 16-10 13-5z"/>
<path transform="translate(460,2047)" d="m0 0 4 1z"/>
</svg>
